<?xml version="1.0" encoding="UTF-8" standalone="no"?>
<svg
   height="990.69501mm"
   width="1521.073mm"
   viewBox="0 0 5748.935 3744.366"
   version="1.2"
   id="svg38"
   sodipodi:docname="male_shirt.svg"
   inkscape:version="1.4.2 (ebf0e940d0, 2025-05-08)"
   xmlns:inkscape="http://www.inkscape.org/namespaces/inkscape"
   xmlns:sodipodi="http://sodipodi.sourceforge.net/DTD/sodipodi-0.dtd"
   xmlns="http://www.w3.org/2000/svg"
   xmlns:svg="http://www.w3.org/2000/svg"
   xmlns:rdf="http://www.w3.org/1999/02/22-rdf-syntax-ns#"
   xmlns:cc="http://creativecommons.org/ns#"
   xmlns:dc="http://purl.org/dc/elements/1.1/">
  <sodipodi:namedview
     id="namedview38"
     pagecolor="#ffffff"
     bordercolor="#666666"
     borderopacity="1.0"
     inkscape:showpageshadow="2"
     inkscape:pageopacity="0.0"
     inkscape:pagecheckerboard="0"
     inkscape:deskcolor="#d1d1d1"
     inkscape:document-units="mm"
     inkscape:zoom="0.13288677"
     inkscape:cx="2821.9513"
     inkscape:cy="2005.4667"
     inkscape:window-width="1536"
     inkscape:window-height="803"
     inkscape:window-x="0"
     inkscape:window-y="0"
     inkscape:window-maximized="1"
     inkscape:current-layer="svg38" />
  <title
     id="title1">Pattern</title>
  <desc
     id="desc1">Generated with Qt</desc>
  <defs
     id="defs1" />
  <g
     transform="translate(3019.3692,309.24995)"
     stroke-linecap="round"
     font-family="Arial"
     stroke-opacity="1"
     fill="none"
     stroke-linejoin="round"
     font-weight="400"
     font-size="10.6667px"
     stroke-width="4.53543"
     font-style="normal"
     stroke="#000000"
     id="g1"
     style="fill-rule:evenodd">
    <path
       d="M -2951.32,3348.19 V 473.233 h 207.87 l 9.86,-0.508 18.97,-1.39 18.1,-1.839 17.24,-2.287 16.41,-2.735 15.59,-3.183 14.79,-3.63 14.01,-4.077 13.25,-4.524 12.52,-4.97 11.79,-5.416 11.08,-5.862 10.4,-6.307 9.74,-6.752 9.09,-7.197 8.46,-7.641 7.86,-8.085 7.26,-8.529 6.7,-8.972 6.14,-9.415 5.61,-9.858 5.09,-10.3 4.6,-10.742 4.13,-11.184 3.66,-11.625 3.23,-12.066 2.81,-12.507 2.41,-12.947 2.02,-13.387 1.67,-13.826 1.89,-21.509 0.79,-14.997 851.5,174.966 -6.44,49.38 -13.11,95.582 -12.67,91.449 -11.41,86.963 -7.19,61.905 -4.03,39.785 -3.27,38.464 -2.41,37.098 -1.46,35.69 -0.4,34.236 0.75,32.738 2.01,31.198 2.44,22.31 2.04,14.4 2.41,13.98 2.79,13.58 3.18,13.15 3.59,12.73 4.02,12.29 4.44,11.85 4.89,11.41 5.34,10.96 5.81,10.51 6.3,10.05 6.79,9.58 7.29,9.11 7.81,8.63 8.35,8.15 8.89,7.67 9.44,7.17 10.01,6.67 10.59,6.16 11.19,5.66 11.79,5.14 12.41,4.62 13.04,4.09 13.68,3.56 14.34,3.02 15.01,2.48 15.69,1.94 16.37,1.37 17.09,0.82 17.8,0.25 18.53,-0.32 9.57,-0.4 v 1428.66 l -16.66,453.37 -1.62,-0.02 -33.01,0.55 -29.15,1.62 -25.76,2.62 -22.82,3.54 -20.34,4.39 -18.32,5.17 -16.76,5.88 -15.65,6.52 -15.01,7.08 -22.24,11.46 -23.49,12.42 -17,8.61 -18.65,8.81 -20.76,8.93 -23.32,9 -26.34,8.97 -29.82,8.89 -33.75,8.73 -38.15,8.49 -43.01,8.19 -48.31,7.81 -54.09,7.36 -60.32,6.84 -67.01,6.25 -74.15,5.57 -81.75,4.84 -89.82,4.03 -98.33,3.14 -107.32,2.19 -116.75,1.15 -62.49,0.12 h -207.87"
       vector-effect="none"
       fill-rule="evenodd"
       id="path1" />
  </g>
  <g
     transform="translate(3019.3692,309.24995)"
     stroke-linecap="round"
     font-family="Arial"
     stroke-opacity="1"
     fill="none"
     stroke-linejoin="round"
     font-weight="400"
     font-size="10.6667px"
     stroke-width="4.53543"
     font-style="normal"
     stroke="#000000"
     id="g2"
     style="fill-rule:evenodd">
    <path
       d="M -2989.11,3385.99 V 435.438 h 244.69 l 8.48,-0.437 18.03,-1.321 16.99,-1.727 16.05,-2.128 15.11,-2.519 14.19,-2.898 13.29,-3.262 12.41,-3.611 11.55,-3.944 10.73,-4.26 9.93,-4.562 9.18,-4.851 8.46,-5.131 7.8,-5.41 7.19,-5.694 6.64,-5.991 6.13,-6.311 5.67,-6.659 5.25,-7.04 4.87,-7.457 4.5,-7.908 4.15,-8.39 3.81,-8.898 3.47,-9.427 3.15,-9.97 2.81,-10.521 2.49,-11.077 2.16,-11.634 1.85,-12.189 1.52,-12.658 1.78,-20.242 3.06,-58.212 928.97,190.883 -11.01,84.343 -13.13,95.728 -12.65,91.342 -11.36,86.55 -7.12,61.35 -3.97,39.207 -3.22,37.787 -2.36,36.268 -1.41,34.683 -0.39,33.029 0.72,31.302 1.91,29.579 2.27,20.87 1.88,13.25 2.21,12.83 2.53,12.33 2.87,11.82 3.19,11.31 3.52,10.8 3.85,10.27 4.18,9.76 4.51,9.25 4.85,8.76 5.18,8.26 5.52,7.8 5.89,7.35 6.27,6.93 6.67,6.52 7.11,6.12 7.57,5.76 8.09,5.39 8.64,5.03 9.23,4.66 9.86,4.3 10.51,3.91 11.21,3.52 11.92,3.1 12.66,2.67 13.41,2.22 14.19,1.74 14.97,1.26 15.77,0.76 16.57,0.23 17.48,-0.3 48.48,-2.02 v 1468.76 l -18.05,490.86 -37.92,-0.41 -31.75,0.53 -27.56,1.53 -23.91,2.43 -20.74,3.21 -18.1,3.91 -16.05,4.54 -14.63,5.13 -13.85,5.77 -13.61,6.42 -21.47,11.07 -23.62,12.48 -17.77,9 -19.71,9.3 -22.02,9.49 -24.7,9.52 -27.74,9.45 -31.18,9.3 -35.05,9.06 -39.35,8.76 -44.1,8.4 -49.3,7.97 -54.98,7.48 -61.11,6.93 -67.71,6.31 -74.79,5.63 -82.33,4.87 -90.33,4.05 -98.8,3.15 -107.73,2.2 -117.1,1.16 -62.67,0.12 h -245.7"
       vector-effect="none"
       fill-rule="evenodd"
       id="path2" />
  </g>
  <g
     stroke-linecap="square"
     fill="none"
     fill-rule="evenodd"
     stroke-linejoin="bevel"
     stroke-width="1"
     stroke="#000000"
     id="g7"
     transform="translate(-5598.3528,-819.81229)">
    <g
       transform="translate(4494.1,678.666)"
       stroke-linecap="round"
       font-family="Arial"
       stroke-opacity="1"
       fill="none"
       stroke-linejoin="round"
       font-weight="400"
       font-size="10.6667px"
       stroke-width="4.53543"
       font-style="normal"
       stroke="#000000"
       id="g5">
      <path
         d="m 2709.21,302.158 -23.25,-0.258 -46.53,0.297 -46.36,1.16 -46,1.897 -45.44,2.51 -44.68,2.996 -65.3,5.11 -122.09,11.152 -87.14,7.781 -31.36,2.366 -28.8,1.723 -26.03,0.953 -11.78,0.109 -8.73,-0.049 -20,-0.744 -34.22,-2.268 -50.83,-4.778 -51.54,-5.784 -68.76,-8.657 -30.86,-4.259 7.5,-75.134 12.02,-3.567 24,-6.83 24.68,-6.456 26.19,-6.069 28.54,-5.669 31.72,-5.255 35.73,-4.83 40.58,-4.392 46.26,-3.939 52.77,-3.476 60.11,-2.998 68.28,-2.509 77.3,-2.005 87.13,-1.49 97.81,-0.962 109.32,-0.42 59.76,0.02 v 124.724"
         vector-effect="none"
         fill-rule="evenodd"
         id="path4" />
    </g>
    <g
       transform="translate(4494.1,678.666)"
       stroke-linecap="round"
       font-family="Arial"
       stroke-opacity="1"
       fill="none"
       stroke-linejoin="round"
       font-weight="400"
       font-size="10.6667px"
       stroke-width="4.53543"
       font-style="normal"
       stroke="#000000"
       id="g6">
      <path
         d=""
         vector-effect="none"
         fill-rule="evenodd"
         id="path5" />
    </g>
  </g>
  <g
     stroke-linecap="square"
     fill="none"
     fill-rule="evenodd"
     stroke-linejoin="bevel"
     stroke-width="1"
     stroke="#000000"
     id="g10"
     transform="translate(-2678.3528,-177.81133)">
    <g
       transform="translate(5157.02,-107.192)"
       stroke-linecap="round"
       font-family="Arial"
       stroke-opacity="1"
       fill="none"
       stroke-linejoin="round"
       font-weight="400"
       font-size="10.6667px"
       stroke-width="4.53543"
       font-style="normal"
       stroke="#000000"
       id="g8">
      <path
         d="m 1892.57,3748.01 h 574.73 v 113.39 h 113.38 l 56.7,56.69 -56.7,56.69 h -688.11 v -226.77"
         vector-effect="none"
         fill-rule="evenodd"
         id="path7" />
    </g>
    <g
       transform="translate(5157.02,-107.192)"
       stroke-linecap="round"
       font-family="Arial"
       stroke-opacity="1"
       fill="none"
       stroke-linejoin="round"
       font-weight="400"
       font-size="10.6667px"
       stroke-width="4.53543"
       font-style="normal"
       stroke="#000000"
       id="g9">
      <path
         d="m 1854.77,3710.21 h 650.32 v 113.39 h 91.25 l 94.49,94.49 -94.49,94.49 h -741.57 v -302.37"
         vector-effect="none"
         fill-rule="evenodd"
         id="path8" />
    </g>
  </g>
  <g
     stroke-linecap="square"
     fill="none"
     fill-rule="evenodd"
     stroke-linejoin="bevel"
     stroke-width="1"
     stroke="#000000"
     id="g13"
     transform="translate(-2938.3528,-2705.813)">
    <g
       transform="translate(4181.39,-488.694)"
       stroke-linecap="round"
       font-family="Arial"
       stroke-opacity="1"
       fill="none"
       stroke-linejoin="round"
       font-weight="400"
       font-size="10.6667px"
       stroke-width="4.53543"
       font-style="normal"
       stroke="#000000"
       id="g11">
      <path
         d=""
         vector-effect="none"
         fill-rule="evenodd"
         id="path10" />
    </g>
    <g
       transform="translate(4181.39,-488.694)"
       stroke-linecap="round"
       font-family="Arial"
       stroke-opacity="1"
       fill="none"
       stroke-linejoin="round"
       font-weight="400"
       font-size="10.6667px"
       stroke-width="4.53543"
       font-style="normal"
       stroke="#000000"
       id="g12">
      <path
         d="m 1851.54,3535.78 v -302.36 h 1285.04 v 302.36 H 1851.54"
         vector-effect="none"
         fill-rule="evenodd"
         id="path11" />
    </g>
  </g>
  <g
     stroke-linecap="square"
     fill="none"
     fill-rule="evenodd"
     stroke-linejoin="bevel"
     stroke-width="1"
     stroke="#000000"
     id="g16"
     transform="translate(-5598.3528,-819.81229)">
    <g
       transform="translate(4487.28,922.271)"
       stroke-linecap="round"
       font-family="Arial"
       stroke-opacity="1"
       fill="none"
       stroke-linejoin="round"
       font-weight="400"
       font-size="10.6667px"
       stroke-width="4.53543"
       font-style="normal"
       stroke="#000000"
       id="g14">
      <path
         d="m 2709.21,302.158 -23.25,-0.258 -46.53,0.297 -46.36,1.16 -46,1.897 -45.44,2.51 -44.68,2.996 -65.3,5.11 -122.09,11.152 -87.14,7.781 -31.36,2.366 -28.8,1.723 -26.03,0.953 -11.78,0.109 -8.73,-0.049 -20,-0.744 -34.22,-2.268 -50.83,-4.778 -51.54,-5.784 -68.76,-8.657 -30.86,-4.259 7.5,-75.134 12.02,-3.567 24,-6.83 24.68,-6.456 26.19,-6.069 28.54,-5.669 31.72,-5.255 35.73,-4.83 40.58,-4.392 46.26,-3.939 52.77,-3.476 60.11,-2.998 68.28,-2.509 77.3,-2.005 87.13,-1.49 97.81,-0.962 109.32,-0.42 59.76,0.02 v 124.724"
         vector-effect="none"
         fill-rule="evenodd"
         id="path13" />
    </g>
    <g
       transform="translate(4487.28,922.271)"
       stroke-linecap="round"
       font-family="Arial"
       stroke-opacity="1"
       fill="none"
       stroke-linejoin="round"
       font-weight="400"
       font-size="10.6667px"
       stroke-width="4.53543"
       font-style="normal"
       stroke="#000000"
       id="g15">
      <path
         d="m 2747.01,340.376 -61.14,-0.679 -45.85,0.292 -45.7,1.143 -45.43,1.874 -44.96,2.483 -44.24,2.967 -64.85,5.075 -121.88,11.133 -87.44,7.808 -31.91,2.408 -29.53,1.766 -26.98,0.988 -12.59,0.116 -9.6,-0.054 -21.15,-0.786 -35.28,-2.339 -51.69,-4.859 -52.13,-5.85 -69.24,-8.716 -38.19,-5.272 -21.4,-79.551 6.09,-61.059 36.57,-10.844 24.58,-6.999 25.59,-6.693 27.29,-6.324 29.72,-5.902 32.87,-5.447 36.79,-4.972 41.5,-4.492 47.05,-4.007 53.43,-3.519 60.66,-3.026 68.74,-2.525 77.66,-2.015 87.44,-1.495 98.06,-0.964 109.51,-0.421 97.63,0.033 v 200.724"
         vector-effect="none"
         fill-rule="evenodd"
         id="path14" />
    </g>
  </g>
  <g
     stroke-linecap="square"
     fill="none"
     fill-rule="evenodd"
     stroke-linejoin="bevel"
     stroke-width="1"
     stroke="#000000"
     id="g19"
     transform="translate(27.649218,-37.810977)">
    <g
       transform="translate(3186.47,390.122)"
       stroke-linecap="round"
       font-family="Arial"
       stroke-opacity="1"
       fill="none"
       stroke-linejoin="round"
       font-weight="400"
       font-size="10.6667px"
       stroke-width="4.53543"
       font-style="normal"
       stroke="#000000"
       id="g17">
      <path
         d="M 113.878,3348.19 H 0.491883 l -63.041383,-0.06 -117.6485,-0.98 -107.958,-1.96 -98.745,-2.87 -90.01,-3.72 -81.753,-4.5 -73.975,-5.2 -30.85,-2.71 -22.003,-299.26 v -321.26 l -0.378,321.26 -21.363,295.26 -51.931,-5.59 -53.507,-6.95 -47.64,-7.4 -42.251,-7.79 -37.341,-8.1 -32.908,-8.36 -28.949,-8.54 -25.48,-8.66 -22.48,-8.72 -19.96,-8.7 -17.91,-8.63 -16.35,-8.48 -22.69,-12.35 -21.76,-11.59 -14.87,-7.25 -15.7,-6.78 -17.01,-6.24 -18.78,-5.63 -21.04,-4.97 -23.79,-4.23 -26.99,-3.43 -30.69,-2.56 -34.87,-1.62 -2.66,-0.06 -16.69,-453.89 V 1277.01 l 13.9,-0.7 26.74,-1.94 25.49,-2.58 24.26,-3.2 23.06,-3.81 21.89,-4.43 20.73,-5.03 19.6,-5.63 18.49,-6.22 17.41,-6.8 16.36,-7.37 15.31,-7.94 14.3,-8.5 13.32,-9.05 12.35,-9.6 11.41,-10.13 10.49,-10.66 9.6,-11.19 8.73,-11.7 7.88,-12.21 7.06,-12.71 6.26,-13.2 5.49,-13.69 4.73,-14.17 4.01,-14.64 3.3,-15.11 2.62,-15.56 1.96,-16.01 1.33,-16.45 0.72,-16.888 0.13,-17.315 -0.42,-17.736 -0.97,-18.148 -1.48,-18.553 -1.98,-18.952 -2.44,-19.342 -4.44,-29.684 -7.41,-40.942 -8.85,-42.373 -10.11,-43.745 -11.17,-45.06 -12.06,-46.315 -19.26,-71.559 -18.05,-66.254 13.33,-2.223 27.62,-4.245 43.31,-5.957 61.351,-7.122 64.792,-6.278 67.72,-5.491 70.137,-4.759 72.041,-4.085 73.434,-3.464 74.315,-2.901 74.684,-2.394 111.712,-2.806 145.44,-2.411 137.7033,-1.387 64.092583,-0.433 H 113.878 V 3348.19"
         vector-effect="none"
         fill-rule="evenodd"
         id="path16" />
    </g>
    <g
       transform="translate(3186.47,390.122)"
       stroke-linecap="round"
       font-family="Arial"
       stroke-opacity="1"
       fill="none"
       stroke-linejoin="round"
       font-weight="400"
       font-size="10.6667px"
       stroke-width="4.53543"
       font-style="normal"
       stroke="#000000"
       id="g18">
      <path
         d="M 151.673,3385.99 H 0.473712 l -63.199512,-0.06 -117.9732,-0.99 -108.349,-1.97 -99.182,-2.88 -90.498,-3.74 -82.301,-4.52 -74.591,-5.26 -36.697,-3.22 -0.043,0.6 -91.26,-9.81 -54.388,-7.07 -48.63,-7.56 -43.358,-7.99 -38.568,-8.37 -34.248,-8.69 -30.388,-8.97 -26.96,-9.16 -23.95,-9.29 -21.33,-9.3 -19.06,-9.18 -17.19,-8.92 -22.85,-12.44 -21.02,-11.19 -13.49,-6.57 -13.93,-6.02 -14.94,-5.48 -16.61,-4.99 -18.92,-4.46 -21.82,-3.88 -25.26,-3.21 -29.19,-2.44 -33.68,-1.57 -37.85,-0.78 -18.02,-490.24 V 1241.08 l 49.37,-2.5 25.79,-1.87 24.39,-2.46 23.07,-3.05 21.79,-3.6 20.51,-4.15 19.26,-4.68 18.04,-5.18 16.83,-5.66 15.66,-6.11 14.53,-6.55 13.43,-6.96 12.37,-7.35 11.37,-7.73 10.42,-8.1 9.53,-8.46 8.7,-8.84 7.92,-9.23 7.19,-9.64 6.51,-10.09 5.86,-10.55 5.24,-11.05 4.64,-11.58 4.05,-12.12 3.47,-12.69 2.9,-13.25 2.33,-13.83 1.76,-14.39 1.21,-14.96 0.66,-15.509 0.13,-16.053 -0.41,-16.583 -0.91,-17.1 -1.4,-17.601 -1.89,-18.09 -2.33,-18.506 -4.29,-28.686 -7.22,-39.871 -8.66,-41.483 -9.95,-43.062 -11.06,-44.555 -11.95,-45.952 -19.21,-71.35 -29.03,-106.538 54.81,-9.14 28.15,-4.327 44,-6.053 62.109,-7.208 65.444,-6.341 68.263,-5.535 70.595,-4.791 72.43,-4.106 73.766,-3.481 74.6,-2.912 74.947,-2.402 112.004,-2.814 145.724,-2.415 137.8892,-1.389 64.282794,-0.435 H 151.673 V 3385.99"
         vector-effect="none"
         fill-rule="evenodd"
         id="path17" />
    </g>
  </g>
  <g
     stroke-linecap="square"
     fill="none"
     fill-rule="evenodd"
     stroke-linejoin="bevel"
     stroke-width="1"
     stroke="#000000"
     id="g22"
     transform="translate(-132.35114,-37.810977)">
    <g
       transform="translate(3106.66,227.91)"
       stroke-linecap="round"
       font-family="Arial"
       stroke-opacity="1"
       fill="none"
       stroke-linejoin="round"
       font-weight="400"
       font-size="10.6667px"
       stroke-width="4.53543"
       font-style="normal"
       stroke="#000000"
       id="g20">
      <path
         d="m -1116.26,437.958 -14.43,-54.581 -13.34,-52.614 -12.9,-53.46 -12.26,-54.245 -5.79,-27.428 848.059,-190.93358 0.238,2.94002 1.017,6.18216 1.663,6.5094 2.307,6.797 2.946,7.0454 3.583,7.2544 4.216,7.4239 4.846,7.554 5.473,7.6449 6.097,7.6961 6.716,7.7082 7.334,7.6807 7.948,7.6139 8.559,7.5075 9.165,7.362 9.77,7.177 10.37,6.953 10.968,6.689 11.563,6.385 12.153,6.043 12.741,5.661 13.326,5.24 13.907,4.779 14.485,4.278 15.059,3.739 15.632,3.16 16.1991,2.542 16.7644,1.884 17.3262,1.187 17.8847,0.45 18.4399,-0.326 18.99186,-1.141 9.724723,-0.925 V 437.958 H -1116.26"
         vector-effect="none"
         fill-rule="evenodd"
         id="path19" />
    </g>
    <g
       transform="translate(3106.66,227.91)"
       stroke-linecap="round"
       font-family="Arial"
       stroke-opacity="1"
       fill="none"
       stroke-linejoin="round"
       font-weight="400"
       font-size="10.6667px"
       stroke-width="4.53543"
       font-style="normal"
       stroke="#000000"
       id="g21">
      <path
         d="m -1145.36,475.753 -21.91,-82.899 -13.45,-53.013 -13.01,-53.939 -12.38,-54.771 -13.56,-64.181 926.91,-208.686 3.624,44.77302 0.497,3.02117 0.895,3.50315 1.42,4.18486 1.986,4.7499 2.575,5.2134 3.174,5.5885 3.776,5.8862 4.378,6.115 4.976,6.2818 5.57,6.3919 6.158,6.4496 6.742,6.4581 7.318,6.4203 7.891,6.3381 8.458,6.2135 9.021,6.0479 9.581,5.8424 10.136,5.5982 10.69,5.315 11.241,4.995 11.794,4.637 12.344,4.242 12.897,3.809 13.45,3.34 14.006,2.831 14.564,2.285 15.1258,1.7 15.6906,1.075 16.2587,0.409 16.8303,-0.297 17.5359,-1.054 50.4439,-4.798 V 475.753 H -1145.36"
         vector-effect="none"
         fill-rule="evenodd"
         id="path20" />
    </g>
  </g>
  <g
     stroke-linecap="square"
     fill="none"
     fill-rule="evenodd"
     stroke-linejoin="bevel"
     stroke-width="1"
     stroke="#000000"
     id="g25"
     transform="rotate(180,5916.0307,368.48174)">
    <g
       transform="translate(4464.05,52.1687)"
       stroke-linecap="round"
       font-family="Arial"
       stroke-opacity="1"
       fill="none"
       stroke-linejoin="round"
       font-weight="400"
       font-size="10.6667px"
       stroke-width="4.53543"
       font-style="normal"
       stroke="#000000"
       id="g23">
      <path
         d="M 1919.15,252.077 V -50.2851 l 0.58,0.6234 2.02,1.2467 4.83,1.8687 9.97,2.4842 13.59,2.4702 16.93,2.4499 20.01,2.4233 34.89,3.5766 55.26,4.6115 62.72,4.3919 68.06,4.1218 71.23,3.8015 108.4,5.0472 135.81,5.0769 84.58,2.31637 45.26,0.82234 33.41,0.14963 15.51,-0.38331 5.82,-0.47691 1.18,-0.32006 V 177.434 l -27.69,-0.041 -55.54,0.454 -55.56,1.09 -55.37,1.717 -54.99,2.338 -54.41,2.951 -53.63,3.557 -52.66,4.155 -51.49,4.745 -50.12,5.328 -48.55,5.904 -46.79,6.472 -44.82,7.032 -42.66,7.586 -40.3,8.131 -37.75,8.668 -17.73,4.556"
         vector-effect="none"
         fill-rule="evenodd"
         id="path22" />
    </g>
    <g
       transform="translate(4464.05,52.1687)"
       stroke-linecap="round"
       font-family="Arial"
       stroke-opacity="1"
       fill="none"
       stroke-linejoin="round"
       font-weight="400"
       font-size="10.6667px"
       stroke-width="4.53543"
       font-style="normal"
       stroke="#000000"
       id="g24">
      <path
         d=""
         vector-effect="none"
         fill-rule="evenodd"
         id="path23" />
    </g>
  </g>
  <g
     stroke-linecap="square"
     fill="none"
     fill-rule="evenodd"
     stroke-linejoin="bevel"
     stroke-width="1"
     stroke="#000000"
     id="g28"
     transform="translate(-1558.3528,-3097.813)">
    <g
       transform="translate(4158.65,-91.326)"
       stroke-linecap="round"
       font-family="Arial"
       stroke-opacity="1"
       fill="none"
       stroke-linejoin="round"
       font-weight="400"
       font-size="10.6667px"
       stroke-width="4.53543"
       font-style="normal"
       stroke="#000000"
       id="g26">
      <path
         d="m 1889.33,3497.98 v -226.77 h 1209.45 v 226.77 H 1889.33"
         vector-effect="none"
         fill-rule="evenodd"
         id="path25" />
    </g>
    <g
       transform="translate(4158.65,-91.326)"
       stroke-linecap="round"
       font-family="Arial"
       stroke-opacity="1"
       fill="none"
       stroke-linejoin="round"
       font-weight="400"
       font-size="10.6667px"
       stroke-width="4.53543"
       font-style="normal"
       stroke="#000000"
       id="g27">
      <path
         d="m 1851.54,3535.78 v -302.36 h 1285.04 v 302.36 H 1851.54"
         vector-effect="none"
         fill-rule="evenodd"
         id="path26" />
    </g>
  </g>
  <g
     stroke-linecap="square"
     fill="none"
     fill-rule="evenodd"
     stroke-linejoin="bevel"
     stroke-width="1"
     stroke="#000000"
     id="g31"
     transform="translate(-2681.3914,31.402379)">
    <g
       transform="translate(4472.54,464.465)"
       stroke-linecap="round"
       font-family="Arial"
       stroke-opacity="1"
       fill="none"
       stroke-linejoin="round"
       font-weight="400"
       font-size="10.6667px"
       stroke-width="4.53543"
       font-style="normal"
       stroke="#000000"
       id="g29">
      <path
         d="m 2709.21,139.639 -34.24,-0.01 -88.25,0.99 -78.24,1.906 -55.67,1.889 -57.7,2.494 -58.82,3.17 -59.05,3.915 -58.36,4.732 -56.77,5.618 -54.27,6.574 -38.39,5.635 -24.41,4.071 -23.28,4.349 -22.03,4.637 -20.67,4.933 -19.19,5.238 -17.61,5.552 -15.91,5.875 -7.2,3.075 V -50.2851 l 0.58,0.6234 2.02,1.2467 4.83,1.8687 9.97,2.4842 13.59,2.4702 16.93,2.4499 20.01,2.4233 34.89,3.5766 55.26,4.6115 62.72,4.3919 68.06,4.1218 71.23,3.8015 108.4,5.0472 135.81,5.0769 84.58,2.31637 45.26,0.82234 33.41,0.14963 15.51,-0.38331 5.82,-0.47691 1.18,-0.32006 V 139.639"
         vector-effect="none"
         fill-rule="evenodd"
         id="path28" />
    </g>
    <g
       transform="translate(4472.54,464.465)"
       stroke-linecap="round"
       font-family="Arial"
       stroke-opacity="1"
       fill="none"
       stroke-linejoin="round"
       font-weight="400"
       font-size="10.6667px"
       stroke-width="4.53543"
       font-style="normal"
       stroke="#000000"
       id="g30">
      <path
         d="m 2747.01,177.445 -71.84,-0.021 -87.78,0.985 -77.81,1.895 -55.31,1.877 -57.32,2.478 -58.39,3.147 -58.54,3.881 -57.75,4.682 -56.02,5.544 -53.39,6.468 -37.55,5.512 -23.69,3.95 -22.49,4.202 -21.12,4.444 -19.58,4.675 -17.9,4.884 -16.03,5.055 -14.17,5.233 -58.97,25.178 V -76.0828 l 48.04,-18.7991 9.14,12.3661 5.97,1.485 11.72,2.1309 15.82,2.2895 19.23,2.3289 34.19,3.5048 54.65,4.5608 62.3,4.3618 67.74,4.1028 70.97,3.7875 108.09,5.0332 135.45,5.0634 84.22,2.3064 44.83,0.8145 32.6,0.146 13.88,-0.343 1.29,-0.1057 45.52,-12.3261 V 177.445"
         vector-effect="none"
         fill-rule="evenodd"
         id="path29" />
    </g>
  </g>
  <g
     stroke-linecap="square"
     fill="none"
     fill-rule="evenodd"
     stroke-linejoin="bevel"
     stroke-width="1"
     stroke="#000000"
     id="g34"
     transform="translate(-2678.3528,-177.81133)">
    <g
       transform="translate(4458.87,97.2171)"
       stroke-linecap="round"
       font-family="Arial"
       stroke-opacity="1"
       fill="none"
       stroke-linejoin="round"
       font-weight="400"
       font-size="10.6667px"
       stroke-width="4.53543"
       font-style="normal"
       stroke="#000000"
       id="g32">
      <path
         d="m 1892.57,3748.01 v -113.39 h 574.73 v 113.39 h -574.73"
         vector-effect="none"
         fill-rule="evenodd"
         id="path31" />
    </g>
    <g
       transform="translate(4458.87,97.2171)"
       stroke-linecap="round"
       font-family="Arial"
       stroke-opacity="1"
       fill="none"
       stroke-linejoin="round"
       font-weight="400"
       font-size="10.6667px"
       stroke-width="4.53543"
       font-style="normal"
       stroke="#000000"
       id="g33">
      <path
         d="m 1854.77,3785.81 v -188.98 h 650.32 v 188.98 h -650.32"
         vector-effect="none"
         fill-rule="evenodd"
         id="path32" />
    </g>
  </g>
  <g
     id="g38"
     transform="translate(27.649218,-57.811013)">
    <g
       transform="translate(2608.6895,124.31752)"
       stroke-linecap="round"
       font-family="Arial"
       stroke-opacity="1"
       fill="none"
       stroke-linejoin="round"
       font-weight="400"
       font-size="10.6667px"
       stroke-width="4.53543"
       font-style="normal"
       stroke="#000000"
       id="g35"
       style="fill-rule:evenodd">
      <path
         d="m 1889.33,3271.21 -1.36,0.62 -4.67,1.03 -10.88,1.12 -21.93,0.75 -29.12,0.1 -54.4,-0.68 -89.56,-1.66 -75.06,-0.96 -51.66,-0.21 -51.99,0.35 -51.34,1.07 -49.73,1.96 -35.54,2.21 -22.74,1.82 -21.78,2.13 -20.7,2.49 -19.5,2.84 -18.19,3.23 -8.49,1.79 -384.938,-1986.88 4.847,-0.71 12.607,-3.25 27.581,-8.2 36.455,-11.88 42.312,-15.02 33.786,-13.05 22.72,-9.33 22.49,-9.81 21.88,-10.2 20.9,-10.54 19.53,-10.8 9.06,-5.48 18.47,-11.56 36.15,-23.98 34.8,-24.44 33.04,-24.28 45.65,-34.94 50.35,-40.01 19.16,-15.22 10.85,-8.47 27.41,-20.813 49.4,-36.71 71.07,-51.85 60.04,-43.218 18.85,-13.375 14.55,-10.282 29.11,-20.259 22.21,-14.548 15.1,-9.275 15.43,-8.822 15.85,-8.285 16.32,-7.664 16.89,-6.958 17.53,-6.169 18.23,-5.295 19.03,-4.338 19.88,-3.296 20.83,-2.17 21.84,-0.961 11.37,0.056 11.94,0.241 23.84,1.163 23.83,1.999 23.8,2.855 23.78,3.73 23.74,4.626 23.71,5.541 23.68,6.476 23.64,7.431 23.59,8.407 23.56,9.401 23.51,10.416 23.45,11.451 23.41,12.506 23.35,13.58 23.29,14.675 11.63,7.8 11.98,8.238 24.3,17.566 24.49,18.616 24.49,19.382 24.27,19.864 23.84,20.062 34.62,29.905 62.69,56.051 46.81,42.38 16.35,14.19 7.96,6.39 2.84,1.99 4.67,3.03 13.79,8.36 28.72,16.66 78.75,44.08 118.94,64.97 85.99,46.16 10.33,5.21 -384.93,1986.88 -10.04,-2.7 -20.74,-4.65 -21.26,-3.85 -21.53,-3.11 -21.51,-2.45 -21.22,-1.85 -30.81,-1.86 -37.42,-0.98 -31.36,0.12 -32.29,1.03 -4.58,0.3 h -75.97 l -75.59,-151.18 v 151.18 h -94.48 l -75.6,-151.18 v 151.18 h -64.25"
         vector-effect="none"
         fill-rule="evenodd"
         id="path34" />
    </g>
    <g
       transform="translate(2608.6895,120.31752)"
       stroke-linecap="round"
       font-family="Arial"
       stroke-opacity="1"
       fill="none"
       stroke-linejoin="round"
       font-weight="400"
       font-size="10.6667px"
       stroke-width="4.53543"
       font-style="normal"
       stroke="#000000"
       id="g36"
       style="fill-rule:evenodd">
      <path
         d="m 1889.33,3309.01 v 1.22 l -14.32,1.48 -23.82,0.81 -29.99,0.1 -54.82,-0.68 -89.56,-1.66 -74.79,-0.96 -51.29,-0.2 -51.52,0.34 -50.72,1.06 -48.96,1.93 -34.78,2.16 -22.06,1.76 -21.03,2.07 -19.82,2.37 -18.45,2.7 -17.02,3.02 -45.5,9.56 -399.765,-2063.45 42.021,-6.13 9.968,-2.57 26.441,-7.85 35.518,-11.58 41.359,-14.68 32.918,-12.72 21.98,-9.03 21.69,-9.45 20.92,-9.76 19.74,-9.95 18.26,-10.1 8.18,-4.95 17.81,-11.14 35.31,-23.43 34.06,-23.92 32.41,-23.82 45.09,-34.5 50.07,-39.8 19.29,-15.324 11.18,-8.726 27.77,-21.085 49.69,-36.924 71.3,-52.018 60.24,-43.365 18.99,-13.469 14.68,-10.379 29.66,-20.643 23.12,-15.14 16.08,-9.875 16.56,-9.469 17.19,-8.989 17.89,-8.394 18.64,-7.681 19.45,-6.849 20.31,-5.897 21.21,-4.836 22.13,-3.668 23.09,-2.406 23.89,-1.05 12.59,0.061 12.76,0.258 25.04,1.222 25.16,2.11 25.15,3.017 25.14,3.944 25.12,4.893 25.08,5.862 25.05,6.85 24.99,7.858 24.94,8.883 24.86,9.926 24.8,10.986 24.7,12.061 24.62,13.152 24.52,14.26 24.32,15.323 12.25,8.222 12.53,8.612 25.02,18.092 25.16,19.113 25.02,19.806 24.71,20.223 24.23,20.386 35.04,30.275 63.02,56.342 46.61,42.19 15.51,13.46 6.42,5.16 1.27,0.9 3.63,2.36 12.98,7.86 28.15,16.33 78.33,43.85 118.65,64.81 85.43,45.86 35.44,17.84 -398.09,2054.79 -48.47,-13 -19.21,-4.31 -19.82,-3.59 -20.3,-2.93 -20.44,-2.33 -20.23,-1.76 -29.66,-1.8 -36.22,-0.94 -30.14,0.11 0.16,1.34 H 2175.9 l -14.44,-28.88 v 28.88 h -155.64 l -14.44,-28.88 v 28.88 h -102.05"
         vector-effect="none"
         fill-rule="evenodd"
         id="path35" />
    </g>
  </g>
  <metadata
     id="metadata38">
    <rdf:RDF>
      <cc:Work
         rdf:about="">
        <dc:title>Pattern</dc:title>
      </cc:Work>
    </rdf:RDF>
  </metadata>
</svg>
