<?xml version="1.0" encoding="UTF-8" standalone="no"?>
<svg
   height="1080.03mm"
   version="1.2"
   viewBox="0 0 7850 4082"
   width="2076.98mm"
   id="svg28"
   sodipodi:docname="my_shirt_pieces.svg"
   inkscape:version="1.4.3 (0d15f75042, 2025-12-25)"
   xmlns:inkscape="http://www.inkscape.org/namespaces/inkscape"
   xmlns:sodipodi="http://sodipodi.sourceforge.net/DTD/sodipodi-0.dtd"
   xmlns="http://www.w3.org/2000/svg"
   xmlns:svg="http://www.w3.org/2000/svg">
  <sodipodi:namedview
     id="namedview28"
     pagecolor="#ffffff"
     bordercolor="#666666"
     borderopacity="1.0"
     inkscape:showpageshadow="2"
     inkscape:pageopacity="0.0"
     inkscape:pagecheckerboard="0"
     inkscape:deskcolor="#d1d1d1"
     inkscape:document-units="mm"
     inkscape:zoom="0.14086221"
     inkscape:cx="3922.2727"
     inkscape:cy="1955.812"
     inkscape:window-width="1536"
     inkscape:window-height="803"
     inkscape:window-x="0"
     inkscape:window-y="0"
     inkscape:window-maximized="1"
     inkscape:current-layer="svg28" />
  <defs
     id="defs1" />
  <g
     fill="none"
     fill-rule="evenodd"
     id="PlacketTop"
     stroke="#000000"
     stroke-linecap="square"
     stroke-linejoin="bevel"
     stroke-width="1"
     transform="translate(-5445.0343,-3464.3763)">
    <g
       fill="none"
       font-family="Arial"
       font-size="10.6667px"
       font-style="normal"
       font-weight="400"
       stroke="#000000"
       stroke-linecap="round"
       stroke-linejoin="round"
       stroke-opacity="1"
       stroke-width="4.53543"
       transform="translate(5157.02,-107.192)"
       id="g1">
      <path
         d="m 1892.57,3748.01 h 574.73 v 113.39 h 113.38 l 56.7,56.69 -56.7,56.69 h -688.11 v -226.77"
         fill-rule="evenodd"
         vector-effect="none"
         id="path1" />
    </g>
    <g
       fill="none"
       font-family="Arial"
       font-size="10.6667px"
       font-style="normal"
       font-weight="400"
       stroke="#000000"
       stroke-linecap="round"
       stroke-linejoin="round"
       stroke-opacity="1"
       stroke-width="4.53543"
       transform="translate(5157.02,-107.192)"
       id="g2">
      <path
         d="m 1854.77,3710.21 h 650.32 v 113.39 h 91.25 l 94.49,94.49 -94.49,94.49 h -741.57 v -302.37"
         fill-rule="evenodd"
         vector-effect="none"
         id="path2" />
    </g>
  </g>
  <g
     fill="none"
     fill-rule="evenodd"
     id="CollarBaseInterface"
     stroke="#000000"
     stroke-linecap="square"
     stroke-linejoin="bevel"
     stroke-width="1"
     transform="translate(-198.77565,-362.05573)">
    <g
       fill="none"
       font-family="Arial"
       font-size="10.6667px"
       font-style="normal"
       font-weight="400"
       stroke="#000000"
       stroke-linecap="round"
       stroke-linejoin="round"
       stroke-opacity="1"
       stroke-width="4.53543"
       transform="translate(4494.1,678.666)"
       id="g3">
      <path
         d="m 2709.21,302.158 -23.26,-0.258 -46.64,0.297 -46.57,1.16 -46.28,1.897 -45.79,2.51 -45.07,2.996 -65.97,5.11 -123.48,11.152 -88.1,7.781 -31.64,2.366 -29,1.723 -26.14,0.953 -11.79,0.109 -8.74,-0.049 -20.03,-0.744 -34.33,-2.268 -51.06,-4.778 -51.83,-5.784 -69.23,-8.657 -31.38,-4.288 7.46,-75.11 12.03,-3.566 24.15,-6.831 24.95,-6.456 26.57,-6.068 29.01,-5.669 32.26,-5.255 36.32,-4.829 41.19,-4.391 46.89,-3.939 53.38,-3.475 60.7,-2.998 68.82,-2.508 77.76,-2.006 87.52,-1.489 98.08,-0.962 109.46,-0.42 59.78,0.02 v 124.724"
         fill-rule="evenodd"
         vector-effect="none"
         id="path3" />
    </g>
    <g
       fill="none"
       font-family="Arial"
       font-size="10.6667px"
       font-style="normal"
       font-weight="400"
       stroke="#000000"
       stroke-linecap="round"
       stroke-linejoin="round"
       stroke-opacity="1"
       stroke-width="4.53543"
       transform="translate(4494.1,678.666)"
       id="g4">
      <path
         d=""
         fill-rule="evenodd"
         vector-effect="none"
         id="path4" />
    </g>
  </g>
  <g
     fill="none"
     fill-rule="evenodd"
     id="BackPanel"
     stroke="#000000"
     stroke-linecap="square"
     stroke-linejoin="bevel"
     stroke-width="1"
     transform="translate(-49.693924,280.50417)">
    <g
       fill="none"
       font-family="Arial"
       font-size="10.6667px"
       font-style="normal"
       font-weight="400"
       stroke="#000000"
       stroke-linecap="round"
       stroke-linejoin="round"
       stroke-opacity="1"
       stroke-width="4.53543"
       transform="translate(3186.47,397.761)"
       id="g5">
      <path
         d="M 113.878,3348.19 H 0.491883 l -63.041383,-0.06 -117.6485,-0.98 -107.958,-1.96 -98.745,-2.87 -90.01,-3.72 -81.753,-4.5 -73.975,-5.2 -30.85,-2.71 -22.003,-299.26 v -321.26 l -0.378,321.26 -21.363,295.26 -51.931,-5.59 -53.507,-6.95 -47.64,-7.4 -42.251,-7.79 -37.341,-8.1 -32.908,-8.36 -28.949,-8.54 -25.48,-8.66 -22.48,-8.72 -19.96,-8.7 -17.91,-8.63 -16.35,-8.48 -22.69,-12.35 -21.76,-11.59 -14.87,-7.25 -15.7,-6.78 -17.01,-6.24 -18.78,-5.63 -21.04,-4.97 -23.79,-4.23 -26.99,-3.43 -30.69,-2.56 -34.87,-1.62 -2.66,-0.06 -16.69,-453.89 V 1277.01 l 13.9,-0.7 26.73,-1.94 25.48,-2.57 24.25,-3.2 23.05,-3.81 21.86,-4.42 20.71,-5.03 19.57,-5.62 18.47,-6.21 17.37,-6.79 16.32,-7.36 15.27,-7.93 14.27,-8.48 13.26,-9.04 12.31,-9.58 11.36,-10.12 10.44,-10.65 9.54,-11.17 8.67,-11.68 7.83,-12.2 6.99,-12.69 6.2,-13.18 5.42,-13.68 4.67,-14.15 3.94,-14.62 3.23,-15.08 2.56,-15.54 1.89,-15.99 1.26,-16.44 0.65,-16.865 0.06,-17.295 -0.5,-17.715 -1.03,-18.127 -1.56,-18.533 -2.04,-18.932 -2.51,-19.322 -4.55,-29.654 -7.54,-40.902 -8.98,-42.335 -10.24,-43.709 -11.3,-45.024 -12.17,-46.282 -19.41,-71.514 -18.39,-67.019 13.33,-2.223 27.64,-4.245 43.36,-5.958 61.476,-7.121 64.962,-6.278 67.93,-5.49 70.377,-4.76 72.303,-4.084 73.708,-3.465 74.594,-2.9 74.959,-2.394 112.1,-2.806 145.859,-2.411 137.948,-1.386 64.115883,-0.433 H 113.878 V 3348.19"
         fill-rule="evenodd"
         vector-effect="none"
         id="path5" />
    </g>
    <g
       fill="none"
       font-family="Arial"
       font-size="10.6667px"
       font-style="normal"
       font-weight="400"
       stroke="#000000"
       stroke-linecap="round"
       stroke-linejoin="round"
       stroke-opacity="1"
       stroke-width="4.53543"
       transform="translate(3186.47,397.761)"
       id="g6">
      <path
         d="M 151.673,3385.99 H 0.473712 l -63.199512,-0.06 -117.9732,-0.99 -108.349,-1.97 -99.182,-2.88 -90.498,-3.74 -82.301,-4.52 -74.591,-5.26 -36.697,-3.22 -0.043,0.6 -91.26,-9.81 -54.388,-7.07 -48.63,-7.56 -43.358,-7.99 -38.568,-8.37 -34.248,-8.69 -30.388,-8.97 -26.96,-9.16 -23.95,-9.29 -21.33,-9.3 -19.06,-9.18 -17.19,-8.92 -22.85,-12.44 -21.02,-11.19 -13.49,-6.57 -13.93,-6.02 -14.94,-5.48 -16.61,-4.99 -18.92,-4.46 -21.82,-3.88 -25.26,-3.21 -29.19,-2.44 -33.68,-1.57 -37.85,-0.78 -18.02,-490.24 V 1241.08 l 49.37,-2.5 25.79,-1.87 24.38,-2.46 23.06,-3.04 21.77,-3.6 20.49,-4.15 19.24,-4.66 18,-5.17 16.8,-5.65 15.63,-6.11 14.48,-6.53 13.38,-6.95 12.32,-7.33 11.32,-7.71 10.37,-8.07 9.47,-8.44 8.64,-8.81 7.86,-9.2 7.14,-9.62 6.45,-10.05 5.8,-10.52 5.18,-11.02 4.58,-11.55 3.99,-12.1 3.41,-12.66 2.84,-13.23 2.26,-13.8 1.71,-14.37 1.14,-14.94 0.6,-15.492 0.06,-16.034 -0.47,-16.565 -0.98,-17.082 -1.47,-17.584 -1.95,-18.074 -2.41,-18.49 -4.39,-28.662 -7.35,-39.84 -8.79,-41.453 -10.08,-43.034 -11.17,-44.529 -12.08,-45.929 -19.37,-71.319 -29.45,-107.363 54.88,-9.152 28.17,-4.327 44.06,-6.053 62.233,-7.208 65.615,-6.341 68.472,-5.535 70.834,-4.79 72.691,-4.106 74.04,-3.48 74.878,-2.912 75.22,-2.402 112.391,-2.813 146.142,-2.416 138.1323,-1.388 64.305745,-0.435 H 151.673 V 3385.99"
         fill-rule="evenodd"
         vector-effect="none"
         id="path6" />
    </g>
    <g
       fill="#000000"
       fill-opacity="1"
       font-family="'Noto Sans'"
       font-size="117px"
       font-style="normal"
       font-weight="400"
       stroke="#000000"
       stroke-linecap="square"
       stroke-linejoin="bevel"
       stroke-opacity="1"
       stroke-width="1"
       transform="translate(2445.98,1032.46)"
       id="g7">
      <path
         d="m 35.2188,41.5313 c 10.4479,0 18.3437,1.5416 23.6875,4.625 5.3437,3.0833 8.0156,8.4479 8.0156,16.0937 0,3.2708 -0.6042,6.1745 -1.8125,8.7109 -1.2084,2.5365 -3.0026,4.6433 -5.3828,6.3204 -2.3802,1.677 -5.2839,2.8281 -8.711,3.4531 v 0.5781 c 3.5104,0.5521 6.6901,1.5677 9.5391,3.0469 2.8489,1.4791 5.0911,3.5859 6.7266,6.3203 1.6354,2.7344 2.4531,6.2838 2.4531,10.6483 0,5.073 -1.1693,9.383 -3.5078,12.93 -2.3386,3.547 -5.6719,6.237 -10,8.07 -4.3282,1.833 -9.4974,2.75 -15.5078,2.75 H 11.3438 V 41.5313 h 23.875 m 2.1093,35.5781 c 7.1771,0 12.0912,-1.1511 14.7422,-3.4531 2.6511,-2.3021 3.9766,-5.7136 3.9766,-10.2344 0,-4.6042 -1.6198,-7.9011 -4.8594,-9.8906 -3.2396,-1.9896 -8.4062,-2.9844 -15.5,-2.9844 H 21.875 V 77.1094 H 37.3281 M 21.875,85.875 v 30.313 h 16.8594 c 7.4062,0 12.5521,-1.443 15.4375,-4.329 C 57.0573,108.974 58.5,105.188 58.5,100.5 58.5,97.5417 57.8568,94.9714 56.5703,92.7891 55.2839,90.6068 53.138,88.9089 50.1328,87.6953 47.1276,86.4818 43.0521,85.875 37.9063,85.875 H 21.875 M 109.75,61.3125 c 7.635,0 13.286,1.6771 16.953,5.0313 3.667,3.3541 5.5,8.6979 5.5,16.0312 v 42.703 h -7.484 l -1.985,-8.89 h -0.468 c -1.792,2.26 -3.644,4.151 -5.555,5.671 -1.912,1.521 -4.096,2.633 -6.555,3.336 -2.458,0.703 -5.442,1.055 -8.953,1.055 -3.7395,0 -7.1119,-0.664 -10.1171,-1.992 -3.0052,-1.328 -5.3671,-3.375 -7.0859,-6.141 -1.7187,-2.765 -2.5781,-6.258 -2.5781,-10.476 0,-6.24 2.4583,-11.0551 7.375,-14.4457 4.9166,-3.3906 12.4841,-5.2422 22.7031,-5.5547 l 10.641,-0.3593 v -3.7344 c 0,-5.2292 -1.131,-8.8568 -3.391,-10.8828 -2.26,-2.0261 -5.458,-3.0391 -9.594,-3.0391 -3.271,0 -6.388,0.487 -9.3513,1.4609 -2.9636,0.974 -5.737,2.086 -8.3203,3.336 l -3.1563,-7.7344 c 2.7292,-1.4792 5.9662,-2.7448 9.711,-3.7969 3.7449,-1.0521 7.6489,-1.5781 11.7109,-1.5781 m 3.031,33.4688 c -7.802,0.302 -13.2029,1.5468 -16.2029,3.7343 -3,2.1874 -4.5,5.2704 -4.5,9.2504 0,3.51 1.0729,6.083 3.2188,7.718 2.1458,1.636 4.8961,2.454 8.2501,2.454 5.302,0 9.708,-1.461 13.219,-4.383 3.51,-2.922 5.265,-7.425 5.265,-13.508 v -5.6251 l -9.25,0.3594 m 63.985,31.4687 c -5.532,0 -10.461,-1.13 -14.789,-3.391 -4.329,-2.26 -7.722,-5.77 -10.18,-10.531 -2.458,-4.76 -3.688,-10.844 -3.688,-18.2499 0,-7.7291 1.287,-14.0104 3.86,-18.8437 2.573,-4.8334 6.062,-8.3828 10.469,-10.6485 4.406,-2.2656 9.416,-3.3984 15.031,-3.3984 3.198,0 6.281,0.3333 9.25,1 2.969,0.6667 5.385,1.4688 7.25,2.4063 l -3.156,8.5312 c -1.875,-0.6979 -4.06,-1.3594 -6.555,-1.9844 -2.495,-0.625 -4.836,-0.9375 -7.024,-0.9375 -4.208,0 -7.677,0.8959 -10.406,2.6875 -2.729,1.7917 -4.758,4.4427 -6.086,7.9532 -1.328,3.5104 -1.992,7.8802 -1.992,13.1093 0,4.9896 0.664,9.2399 1.992,12.7499 1.328,3.511 3.318,6.164 5.969,7.961 2.651,1.797 5.966,2.695 9.945,2.695 3.427,0 6.448,-0.351 9.063,-1.054 2.614,-0.703 5.015,-1.56 7.203,-2.571 v 9.125 c -2.104,1.094 -4.425,1.933 -6.961,2.516 -2.537,0.583 -5.602,0.875 -9.195,0.875 m 41.187,-43.6406 c 0,1.25 -0.057,2.888 -0.172,4.914 -0.114,2.0261 -0.213,3.7787 -0.297,5.2579 h 0.469 c 0.469,-0.625 1.172,-1.5209 2.11,-2.6875 0.937,-1.1667 1.893,-2.3542 2.867,-3.5625 0.974,-1.2084 1.81,-2.2032 2.508,-2.9844 L 245.453,62.3594 H 257.5 l -25.391,26.7969 27.141,35.9217 h -12.391 l -21.765,-29.2499 -7.141,6.2029 v 23.047 H 207.781 V 36.1563 h 10.172 v 46.4531 m 75.813,-41.0781 c 10.916,0 18.872,2.1458 23.867,6.4375 4.995,4.2916 7.492,10.3385 7.492,18.1406 0,3.4271 -0.568,6.7213 -1.703,9.8828 -1.136,3.1614 -2.99,5.9896 -5.563,8.4844 -2.573,2.4948 -6.005,4.4635 -10.296,5.9062 -4.292,1.4427 -9.558,2.1641 -15.797,2.1641 h -9.594 V 125.078 H 271.641 V 41.5313 h 22.125 m -0.938,9.0156 h -10.656 v 33 h 8.422 c 5.312,0 9.724,-0.5677 13.234,-1.7031 3.511,-1.1355 6.123,-2.9506 7.836,-5.4454 1.714,-2.4948 2.57,-5.7682 2.57,-9.8203 0,-5.3854 -1.716,-9.4036 -5.148,-12.0547 -3.432,-2.651 -8.852,-3.9765 -16.258,-3.9765 m 71.953,10.7656 c 7.636,0 13.287,1.6771 16.953,5.0313 3.667,3.3541 5.5,8.6979 5.5,16.0312 v 42.703 h -7.484 l -1.984,-8.89 h -0.469 c -1.792,2.26 -3.643,4.151 -5.555,5.671 -1.911,1.521 -4.096,2.633 -6.554,3.336 -2.459,0.703 -5.443,1.055 -8.954,1.055 -3.739,0 -7.112,-0.664 -10.117,-1.992 -3.005,-1.328 -5.367,-3.375 -7.086,-6.141 -1.718,-2.765 -2.578,-6.258 -2.578,-10.476 0,-6.24 2.458,-11.0551 7.375,-14.4457 4.917,-3.3906 12.485,-5.2422 22.703,-5.5547 l 10.641,-0.3593 v -3.7344 c 0,-5.2292 -1.13,-8.8568 -3.391,-10.8828 -2.26,-2.0261 -5.458,-3.0391 -9.593,-3.0391 -3.271,0 -6.389,0.487 -9.352,1.4609 -2.964,0.974 -5.737,2.086 -8.32,3.336 l -3.157,-7.7344 c 2.73,-1.4792 5.967,-2.7448 9.711,-3.7969 3.745,-1.0521 7.649,-1.5781 11.711,-1.5781 m 3.032,33.4688 c -7.803,0.302 -13.204,1.5468 -16.204,3.7343 -3,2.1874 -4.5,5.2704 -4.5,9.2504 0,3.51 1.073,6.083 3.219,7.718 2.146,1.636 4.896,2.454 8.25,2.454 5.302,0 9.708,-1.461 13.219,-4.383 3.51,-2.922 5.266,-7.425 5.266,-13.508 v -5.6251 l -9.25,0.3594 m 69.015,-33.5938 c 7.49,0 13.146,1.8151 16.969,5.4453 3.823,3.6302 5.734,9.5026 5.734,17.6172 v 40.828 H 449.359 V 84.9531 c 0,-5.0729 -1.132,-8.8567 -3.398,-11.3515 -2.266,-2.4948 -5.815,-3.7422 -10.648,-3.7422 -6.938,0 -11.735,1.9479 -14.391,5.8437 -2.656,3.8959 -3.984,9.5104 -3.984,16.8438 V 125.078 H 406.656 V 62.3594 h 8.297 l 1.531,8.5469 h 0.579 c 1.406,-2.1875 3.143,-4.0027 5.21,-5.4454 2.068,-1.4427 4.349,-2.5156 6.844,-3.2187 2.495,-0.7031 5.065,-1.0547 7.711,-1.0547 m 66.344,0 c 5.375,0 9.995,1.1719 13.859,3.5156 3.865,2.3438 6.828,5.6407 8.891,9.8907 2.062,4.25 3.094,9.2239 3.094,14.9218 v 6.1875 h -42.938 c 0.156,7.1039 1.971,12.5079 5.445,16.2109 3.474,3.703 8.331,5.555 14.571,5.555 3.979,0 7.508,-0.37 10.586,-1.11 3.078,-0.739 6.258,-1.812 9.539,-3.218 v 9.015 c -3.198,1.407 -6.357,2.44 -9.477,3.102 -3.12,0.661 -6.825,0.992 -11.117,0.992 -5.927,0 -11.172,-1.208 -15.734,-3.625 -4.563,-2.417 -8.112,-6.023 -10.649,-10.82 -2.536,-4.797 -3.804,-10.67 -3.804,-17.6175 0,-6.8646 1.151,-12.7526 3.453,-17.6641 2.302,-4.9114 5.539,-8.6953 9.711,-11.3515 4.171,-2.6563 9.028,-3.9844 14.57,-3.9844 m -0.125,8.4375 c -4.917,0 -8.797,1.5781 -11.641,4.7344 -2.843,3.1562 -4.541,7.5416 -5.093,13.1562 h 31.953 c 0,-3.5833 -0.547,-6.7005 -1.641,-9.3515 -1.094,-2.6511 -2.753,-4.737 -4.977,-6.2578 -2.224,-1.5209 -5.091,-2.2813 -8.601,-2.2813 m 52.172,55.453 H 544.938 V 36.1563 h 10.281 v 88.9217"
         fill-rule="nonzero"
         vector-effect="none"
         id="path7" />
    </g>
  </g>
  <g
     fill="none"
     fill-rule="evenodd"
     id="PlacketUnder"
     stroke="#000000"
     stroke-linecap="square"
     stroke-linejoin="bevel"
     stroke-width="1"
     transform="translate(-3918.7209,-2946.1397)">
    <g
       fill="none"
       font-family="Arial"
       font-size="10.6667px"
       font-style="normal"
       font-weight="400"
       stroke="#000000"
       stroke-linecap="round"
       stroke-linejoin="round"
       stroke-opacity="1"
       stroke-width="4.53543"
       transform="translate(4458.87,97.2171)"
       id="g8">
      <path
         d="m 1892.57,3748.01 v -113.39 h 574.73 v 113.39 h -574.73"
         fill-rule="evenodd"
         vector-effect="none"
         id="path8" />
    </g>
    <g
       fill="none"
       font-family="Arial"
       font-size="10.6667px"
       font-style="normal"
       font-weight="400"
       stroke="#000000"
       stroke-linecap="round"
       stroke-linejoin="round"
       stroke-opacity="1"
       stroke-width="4.53543"
       transform="translate(4458.87,97.2171)"
       id="g9">
      <path
         d="m 1854.77,3785.81 v -188.98 h 650.32 v 188.98 h -650.32"
         fill-rule="evenodd"
         vector-effect="none"
         id="path9" />
    </g>
  </g>
  <g
     fill="none"
     fill-rule="evenodd"
     id="Yoke"
     stroke="#000000"
     stroke-linecap="square"
     stroke-linejoin="bevel"
     stroke-width="1"
     transform="translate(951.28374,-81.551366)">
    <g
       fill="none"
       font-family="Arial"
       font-size="10.6667px"
       font-style="normal"
       font-weight="400"
       stroke="#000000"
       stroke-linecap="round"
       stroke-linejoin="round"
       stroke-opacity="1"
       stroke-width="4.53543"
       transform="translate(2946.25,212.633)"
       id="g10">
      <path
         d="m -1119.32,437.958 -14.28,-53.741 -13.39,-52.601 -12.93,-53.449 -12.28,-54.241 -5.8,-27.427 847.874,-191.78998 0.239,2.94001 1.035,6.18217 1.699,6.5091 2.357,6.7969 3.012,7.0452 3.662,7.254 4.308,7.4235 4.949,7.5537 5.585,7.6444 6.219,7.6957 6.846,7.7076 7.469,7.6802 8.089,7.6133 8.703,7.5072 9.314,7.361 9.919,7.177 10.521,6.952 11.118,6.688 11.71,6.385 12.298,6.042 12.882,5.661 13.461,5.239 14.036,4.778 14.607,4.278 15.172,3.739 15.734,3.16 16.291,2.541 16.8437,1.883 17.3919,1.187 17.9358,0.45 18.4751,-0.326 19.0101,-1.141 9.726283,-0.925 V 437.958 H -1119.32"
         fill-rule="evenodd"
         vector-effect="none"
         id="path10" />
    </g>
    <g
       fill="none"
       font-family="Arial"
       font-size="10.6667px"
       font-style="normal"
       font-weight="400"
       stroke="#000000"
       stroke-linecap="round"
       stroke-linejoin="round"
       stroke-opacity="1"
       stroke-width="4.53543"
       transform="translate(2946.25,212.633)"
       id="g11">
      <path
         d="m -1148.38,475.753 -21.8,-82.02 -13.49,-53.01 -13.05,-53.94 -12.4,-54.777 -13.56,-64.15 926.689,-209.6185 3.645,44.74815 0.492,2.93768 0.896,3.43616 1.436,4.13971 2.019,4.722 2.624,5.1989 3.241,5.5842 3.858,5.8897 4.475,6.1244 5.087,6.2956 5.693,6.4089 6.291,6.4689 6.884,6.4791 7.469,6.442 8.046,6.3602 8.619,6.2355 9.185,6.0691 9.745,5.8627 10.301,5.6166 10.854,5.333 11.402,5.01 11.948,4.65 12.494,4.253 13.037,3.819 13.58,3.346 14.125,2.836 14.6693,2.289 15.2164,1.701 15.7649,1.076 16.3155,0.409 16.868,-0.297 17.5539,-1.054 50.4442,-4.798 V 475.753 H -1148.38"
         fill-rule="evenodd"
         vector-effect="none"
         id="path11" />
    </g>
    <g
       fill="#000000"
       fill-opacity="1"
       font-family="'Noto Sans'"
       font-size="141px"
       font-style="normal"
       font-weight="400"
       stroke="#000000"
       stroke-linecap="square"
       stroke-linejoin="bevel"
       stroke-opacity="1"
       stroke-width="1"
       transform="translate(2634.24,216.854)"
       id="g12">
      <path
         d="M 39.9063,99.5469 66.125,50.0625 H 79.8125 L 46.25,111.672 v 39.062 H 33.5625 v -38.5 L 0,50.0625 H 13.8125 L 39.9063,99.5469 M 150.438,112.797 c 0,6.302 -0.821,11.875 -2.461,16.719 -1.641,4.843 -3.99,8.955 -7.047,12.336 -3.058,3.38 -6.771,5.94 -11.141,7.679 -4.37,1.74 -9.237,2.61 -14.601,2.61 -4.98,0 -9.584,-0.87 -13.813,-2.61 -4.2292,-1.739 -7.8958,-4.299 -11,-7.679 -3.1042,-3.381 -5.526,-7.493 -7.2656,-12.336 C 81.3698,124.672 80.5,119.099 80.5,112.797 c 0,-8.365 1.4115,-15.4376 4.2344,-21.2189 2.8229,-5.7812 6.8672,-10.1979 12.1328,-13.25 C 102.133,75.276 108.38,73.75 115.609,73.75 c 6.865,0 12.907,1.526 18.125,4.5781 5.219,3.0521 9.308,7.4688 12.266,13.25 2.958,5.7813 4.438,12.8539 4.438,21.2189 m -57.0942,0 c 0,5.927 0.7734,11.075 2.3203,15.445 1.5468,4.37 3.9661,7.729 7.2579,10.078 3.292,2.349 7.474,3.524 12.547,3.524 5.083,0 9.268,-1.175 12.554,-3.524 3.287,-2.349 5.706,-5.708 7.258,-10.078 1.552,-4.37 2.328,-9.518 2.328,-15.445 0,-6.011 -0.799,-11.13 -2.398,-15.3595 -1.599,-4.2292 -4.018,-7.4974 -7.258,-9.8047 -3.239,-2.3073 -7.448,-3.4609 -12.625,-3.4609 -7.708,0 -13.299,2.539 -16.7733,7.6172 -3.474,5.0781 -5.2109,12.0809 -5.2109,21.0079 M 182.297,99.5469 c 0,1.5101 -0.07,3.4871 -0.211,5.9301 -0.141,2.442 -0.258,4.554 -0.352,6.336 h 0.563 c 0.562,-0.75 1.409,-1.831 2.539,-3.243 1.13,-1.411 2.284,-2.843 3.461,-4.297 1.177,-1.453 2.187,-2.653 3.031,-3.601 l 24.11,-25.5157 h 14.515 l -30.594,32.2967 32.719,43.281 h -14.953 l -26.219,-35.25 -8.609,7.469 v 27.781 H 170.031 V 43.5625 h 12.266 V 99.5469 M 274.5,73.75 c 6.49,0 12.06,1.4089 16.711,4.2266 4.651,2.8177 8.224,6.789 10.719,11.914 2.494,5.125 3.742,11.1194 3.742,17.9844 v 7.469 h -51.75 c 0.187,8.552 2.372,15.06 6.555,19.523 4.182,4.464 10.033,6.696 17.554,6.696 4.792,0 9.045,-0.446 12.758,-1.336 3.714,-0.891 7.544,-2.18 11.492,-3.868 v 10.844 c -3.854,1.698 -7.661,2.945 -11.422,3.742 -3.76,0.797 -8.224,1.196 -13.39,1.196 -7.146,0 -13.469,-1.456 -18.969,-4.368 -5.5,-2.911 -9.779,-7.257 -12.836,-13.039 -3.057,-5.781 -4.586,-12.854 -4.586,-21.218 0,-8.282 1.388,-15.3832 4.164,-21.3051 2.776,-5.9218 6.677,-10.4791 11.703,-13.6718 5.026,-3.1927 10.878,-4.7891 17.555,-4.7891 m -0.141,10.1406 c -5.916,0 -10.591,1.9037 -14.023,5.711 -3.432,3.8073 -5.477,9.0963 -6.133,15.8674 h 38.485 c 0,-4.323 -0.657,-8.0836 -1.969,-11.2815 -1.313,-3.1979 -3.31,-5.7135 -5.992,-7.5469 -2.683,-1.8333 -6.138,-2.75 -10.368,-2.75"
         fill-rule="nonzero"
         vector-effect="none"
         id="path12" />
    </g>
  </g>
  <g
     fill="none"
     fill-rule="evenodd"
     id="FullSleeve"
     stroke="#000000"
     stroke-linecap="square"
     stroke-linejoin="bevel"
     stroke-width="1"
     transform="translate(-70.99132,-145.4437)">
    <g
       fill="none"
       font-family="Arial"
       font-size="10.6667px"
       font-style="normal"
       font-weight="400"
       stroke="#000000"
       stroke-linecap="round"
       stroke-linejoin="round"
       stroke-opacity="1"
       stroke-width="4.53543"
       transform="translate(2639.53,741.878)"
       id="g13">
      <path
         d="m 1889.33,3271.21 -1.36,0.62 -4.67,1.03 -10.88,1.12 -21.94,0.75 -29.11,0.09 -54.41,-0.69 -89.57,-1.68 -75.06,-0.97 -51.66,-0.22 -51.99,0.34 -51.35,1.06 -49.73,1.96 -35.55,2.2 -22.73,1.82 -21.78,2.14 -20.71,2.48 -19.5,2.84 -18.18,3.23 -8.5,1.79 -383.289,-1988.18 4.838,-0.7 12.58,-3.22 27.522,-8.15 36.382,-11.82 42.235,-14.95 33.722,-13.01 22.69,-9.3 22.47,-9.78 21.85,-10.19 20.88,-10.52 19.53,-10.79 9.06,-5.48 18.46,-11.56 36.12,-23.95 34.75,-24.4 32.96,-24.21 45.55,-34.85 50.23,-39.91 19.16,-15.22 10.84,-8.46 27.38,-20.786 49.32,-36.634 70.92,-51.723 59.92,-43.122 18.85,-13.365 14.54,-10.279 29.07,-20.23 22.17,-14.511 15.07,-9.247 15.4,-8.791 15.8,-8.252 16.29,-7.631 16.85,-6.926 17.49,-6.138 18.2,-5.266 19,-4.313 19.86,-3.276 20.81,-2.156 21.83,-0.952 11.37,0.056 11.93,0.24 23.84,1.153 23.8,1.979 23.77,2.828 23.74,3.696 23.7,4.588 23.66,5.499 23.63,6.432 23.58,7.387 23.55,8.363 23.5,9.359 23.46,10.378 23.42,11.418 23.37,12.478 23.33,13.561 23.28,14.664 11.62,7.8 11.99,8.237 24.28,17.555 24.48,18.598 24.46,19.356 24.23,19.833 23.8,20.026 34.55,29.845 62.55,55.919 46.7,42.28 16.31,14.16 7.95,6.39 2.84,1.99 4.66,3.03 13.79,8.35 28.68,16.62 78.63,43.99 118.74,64.79 85.84,46.03 10.31,5.19 -383.28,1988.18 -10.05,-2.7 -20.73,-4.65 -21.27,-3.85 -21.52,-3.1 -21.52,-2.44 -21.22,-1.84 -30.82,-1.86 -37.43,-0.96 -31.36,0.14 -32.3,1.05 -4.58,0.3 h -75.97 l -75.59,-151.18 v 151.18 h -94.48 l -75.6,-151.18 v 151.18 h -64.25"
         fill-rule="evenodd"
         vector-effect="none"
         id="path13" />
    </g>
    <g
       fill="none"
       font-family="Arial"
       font-size="10.6667px"
       font-style="normal"
       font-weight="400"
       stroke="#000000"
       stroke-linecap="round"
       stroke-linejoin="round"
       stroke-opacity="1"
       stroke-width="4.53543"
       transform="translate(2639.53,741.878)"
       id="g14">
      <path
         d="m 1889.33,3309.01 v 1.22 l -14.32,1.48 -23.83,0.81 -29.99,0.09 -54.82,-0.69 -89.58,-1.68 -74.79,-0.97 -51.29,-0.21 -51.52,0.33 -50.73,1.05 -48.95,1.93 -34.79,2.16 -22.05,1.76 -21.04,2.06 -19.82,2.38 -18.45,2.69 -17.02,3.02 -45.53,9.56 -398.06,-2064.81 42.035,-6.07 9.933,-2.54 26.377,-7.81 35.44,-11.52 41.277,-14.61 32.858,-12.67 21.95,-9 21.65,-9.42 20.89,-9.74 19.72,-9.94 18.25,-10.08 8.17,-4.95 17.81,-11.15 35.28,-23.4 34.01,-23.87 32.34,-23.75 44.98,-34.41 49.96,-39.7 19.28,-15.317 11.17,-8.724 27.74,-21.059 49.61,-36.85 71.16,-51.89 60.12,-43.268 18.98,-13.457 14.68,-10.378 29.63,-20.616 23.07,-15.106 16.05,-9.848 16.53,-9.44 17.16,-8.958 17.85,-8.362 18.61,-7.648 19.42,-6.816 20.28,-5.867 21.17,-4.808 22.1,-3.645 23.07,-2.389 23.87,-1.042 12.58,0.062 12.75,0.257 25.02,1.21 25.12,2.089 25.12,2.988 25.09,3.908 25.07,4.853 25.04,5.818 24.99,6.806 24.95,7.813 24.89,8.839 24.82,9.886 24.75,10.948 24.68,12.03 24.59,13.128 24.5,14.242 24.31,15.314 12.25,8.223 12.53,8.609 25.01,18.082 25.13,19.095 25,19.78 24.67,20.192 24.19,20.351 34.97,30.216 62.88,56.209 46.49,42.1 15.48,13.43 6.4,5.15 1.28,0.89 3.63,2.36 12.96,7.85 28.11,16.3 78.2,43.74 118.45,64.64 85.28,45.73 35.42,17.81 -396.39,2056.12 -48.51,-13.01 -19.2,-4.31 -19.82,-3.58 -20.29,-2.93 -20.45,-2.32 -20.23,-1.76 -29.67,-1.78 -36.21,-0.93 -30.19,0.13 0.17,1.36 H 2175.9 l -14.44,-28.88 v 28.88 h -155.64 l -14.44,-28.88 v 28.88 h -102.05"
         fill-rule="evenodd"
         vector-effect="none"
         id="path14" />
    </g>
    <g
       fill="#000000"
       fill-opacity="1"
       font-family="'Noto Sans'"
       font-size="124px"
       font-style="normal"
       font-weight="400"
       stroke="#000000"
       stroke-linecap="square"
       stroke-linejoin="bevel"
       stroke-opacity="1"
       stroke-width="1"
       transform="translate(4258.43,2275.17)"
       id="g15">
      <path
         d="M 23.1875,132.563 H 12.0313 V 44.0313 H 61.5 v 9.7968 H 23.1875 v 31.375 H 59.1406 V 95 H 23.1875 v 37.563 M 130.438,66.1094 V 132.563 H 121.5 l -1.609,-8.797 h -0.5 c -1.407,2.312 -3.224,4.211 -5.453,5.695 -2.23,1.484 -4.667,2.578 -7.313,3.281 -2.646,0.703 -5.417,1.055 -8.3125,1.055 -5.2917,0 -9.7344,-0.846 -13.3281,-2.539 -3.5938,-1.693 -6.2995,-4.315 -8.1172,-7.867 -1.8177,-3.552 -2.7266,-8.141 -2.7266,-13.766 V 66.1094 h 11.0313 v 42.7656 c 0,5.292 1.1979,9.26 3.5937,11.906 2.3959,2.646 6.1198,3.969 11.1719,3.969 4.9585,0 8.8615,-0.93 11.7105,-2.789 2.849,-1.859 4.873,-4.586 6.071,-8.18 1.198,-3.593 1.797,-7.953 1.797,-13.078 V 66.1094 h 10.922 m 31.984,66.4536 H 151.516 V 38.3281 h 10.906 v 94.2349 m 31.984,0 H 183.5 V 38.3281 h 10.906 v 94.2349 m 72.782,-23.688 c 0,5.292 -1.282,9.776 -3.844,13.453 -2.563,3.677 -6.222,6.508 -10.977,8.492 -4.755,1.985 -10.357,2.977 -16.804,2.977 -3.303,0 -6.464,-0.164 -9.485,-0.492 -3.021,-0.328 -5.771,-0.802 -8.25,-1.422 -2.479,-0.62 -4.667,-1.383 -6.562,-2.289 v -10.672 c 2.968,1.323 6.664,2.521 11.086,3.594 4.421,1.073 8.992,1.609 13.711,1.609 4.375,0 8.052,-0.578 11.031,-1.734 2.979,-1.157 5.211,-2.808 6.695,-4.953 1.484,-2.146 2.227,-4.667 2.227,-7.563 0,-2.896 -0.62,-5.336 -1.86,-7.32 -1.239,-1.985 -3.367,-3.8232 -6.383,-5.5159 -3.015,-1.6927 -7.21,-3.4922 -12.585,-5.3985 -3.803,-1.4062 -7.128,-2.914 -9.977,-4.5234 -2.849,-1.6094 -5.224,-3.4479 -7.125,-5.5156 -1.901,-2.0677 -3.328,-4.4245 -4.281,-7.0703 -0.953,-2.6459 -1.43,-5.7032 -1.43,-9.1719 0,-4.7084 1.198,-8.737 3.594,-12.086 2.396,-3.3489 5.724,-5.9323 9.984,-7.75 4.261,-1.8177 9.156,-2.7265 14.688,-2.7265 4.885,0 9.351,0.4531 13.398,1.3594 4.047,0.9062 7.727,2.1041 11.039,3.5937 l -3.469,9.5469 c -3.062,-1.3229 -6.39,-2.4375 -9.984,-3.3438 -3.594,-0.9062 -7.333,-1.3593 -11.219,-1.3593 -3.729,0 -6.833,0.5364 -9.312,1.6093 -2.479,1.0729 -4.339,2.5808 -5.578,4.5235 -1.24,1.9427 -1.86,4.1953 -1.86,6.7578 0,2.9791 0.62,5.4583 1.86,7.4375 1.239,1.9791 3.265,3.7552 6.078,5.3281 2.812,1.5729 6.614,3.2708 11.406,5.0938 5.208,1.8958 9.612,3.9401 13.211,6.1328 3.599,2.1927 6.328,4.8177 8.187,7.875 1.86,3.0574 2.79,6.8984 2.79,11.5234 m 27.265,23.688 H 283.547 V 38.3281 h 10.906 v 94.2349 m 46.735,-67.7036 c 5.708,0 10.606,1.2396 14.695,3.7187 4.088,2.4792 7.229,5.9714 9.422,10.4766 2.192,4.5052 3.289,9.7786 3.289,15.8203 v 6.563 h -45.5 c 0.156,7.52 2.075,13.244 5.758,17.171 3.682,3.927 8.83,5.891 15.445,5.891 4.208,0 7.945,-0.393 11.211,-1.18 3.265,-0.786 6.633,-1.919 10.101,-3.398 v 9.547 c -3.385,1.479 -6.731,2.57 -10.039,3.273 -3.307,0.703 -7.231,1.055 -11.773,1.055 -6.281,0 -11.841,-1.281 -16.68,-3.844 -4.838,-2.562 -8.601,-6.385 -11.289,-11.469 -2.687,-5.083 -4.031,-11.302 -4.031,-18.6559 0,-7.2708 1.221,-13.5104 3.664,-18.7187 2.443,-5.2084 5.875,-9.2188 10.297,-12.0313 4.422,-2.8125 9.565,-4.2187 15.43,-4.2187 m -0.125,8.9375 c -5.209,0 -9.321,1.6719 -12.336,5.0156 -3.016,3.3438 -4.816,7.9948 -5.399,13.9531 h 33.86 c 0,-3.8021 -0.579,-7.1093 -1.735,-9.9218 -1.156,-2.8125 -2.914,-5.0235 -5.273,-6.6329 -2.36,-1.6093 -5.399,-2.414 -9.117,-2.414 m 70.046,-8.9375 c 5.709,0 10.607,1.2396 14.696,3.7187 4.088,2.4792 7.229,5.9714 9.422,10.4766 2.192,4.5052 3.289,9.7786 3.289,15.8203 v 6.563 h -45.5 c 0.156,7.52 2.075,13.244 5.757,17.171 3.683,3.927 8.831,5.891 15.446,5.891 4.208,0 7.945,-0.393 11.211,-1.18 3.265,-0.786 6.633,-1.919 10.101,-3.398 v 9.547 c -3.385,1.479 -6.732,2.57 -10.039,3.273 -3.307,0.703 -7.232,1.055 -11.773,1.055 -6.281,0 -11.841,-1.281 -16.68,-3.844 -4.838,-2.562 -8.601,-6.385 -11.289,-11.469 -2.687,-5.083 -4.031,-11.302 -4.031,-18.6559 0,-7.2708 1.221,-13.5104 3.664,-18.7187 2.443,-5.2084 5.875,-9.2188 10.297,-12.0313 4.422,-2.8125 9.565,-4.2187 15.429,-4.2187 m -0.125,8.9375 c -5.208,0 -9.32,1.6719 -12.336,5.0156 -3.015,3.3438 -4.815,7.9948 -5.398,13.9531 h 33.859 c 0,-3.8021 -0.578,-7.1093 -1.734,-9.9218 -1.156,-2.8125 -2.914,-5.0235 -5.273,-6.6329 -2.36,-1.6093 -5.399,-2.414 -9.118,-2.414 M 467.516,132.563 442.344,66.1094 H 454 l 14.141,39.1716 c 0.656,1.823 1.356,3.849 2.101,6.078 0.745,2.23 1.406,4.357 1.985,6.383 0.578,2.026 0.992,3.742 1.242,5.149 h 0.5 c 0.323,-1.407 0.794,-3.144 1.414,-5.211 0.62,-2.068 1.323,-4.216 2.109,-6.446 0.787,-2.229 1.472,-4.213 2.055,-5.953 l 14.125,-39.1716 h 11.656 l -25.297,66.4536 h -12.515 m 74.015,-67.7036 c 5.709,0 10.607,1.2396 14.696,3.7187 4.088,2.4792 7.229,5.9714 9.421,10.4766 2.193,4.5052 3.29,9.7786 3.29,15.8203 v 6.563 h -45.5 c 0.156,7.52 2.075,13.244 5.757,17.171 3.683,3.927 8.831,5.891 15.446,5.891 4.208,0 7.945,-0.393 11.211,-1.18 3.265,-0.786 6.632,-1.919 10.101,-3.398 v 9.547 c -3.385,1.479 -6.732,2.57 -10.039,3.273 -3.307,0.703 -7.232,1.055 -11.773,1.055 -6.282,0 -11.842,-1.281 -16.68,-3.844 -4.839,-2.562 -8.602,-6.385 -11.289,-11.469 -2.688,-5.083 -4.031,-11.302 -4.031,-18.6559 0,-7.2708 1.221,-13.5104 3.664,-18.7187 2.442,-5.2084 5.875,-9.2188 10.297,-12.0313 4.421,-2.8125 9.565,-4.2187 15.429,-4.2187 m -0.125,8.9375 c -5.208,0 -9.32,1.6719 -12.336,5.0156 -3.015,3.3438 -4.815,7.9948 -5.398,13.9531 h 33.859 c 0,-3.8021 -0.578,-7.1093 -1.734,-9.9218 -1.156,-2.8125 -2.914,-5.0235 -5.274,-6.6329 -2.359,-1.6093 -5.398,-2.414 -9.117,-2.414"
         fill-rule="nonzero"
         vector-effect="none"
         id="path15" />
    </g>
  </g>
  <g
     fill="none"
     fill-rule="evenodd"
     id="Cuff"
     stroke="#000000"
     stroke-linecap="square"
     stroke-linejoin="bevel"
     stroke-width="1"
     transform="translate(-5537.323,-3081.0233)">
    <g
       fill="none"
       font-family="Arial"
       font-size="10.6667px"
       font-style="normal"
       font-weight="400"
       stroke="#000000"
       stroke-linecap="round"
       stroke-linejoin="round"
       stroke-opacity="1"
       stroke-width="4.53543"
       transform="translate(3807.27,-68.4096)"
       id="g16">
      <path
         d="m 1889.33,3497.98 v -226.77 h 1209.45 v 226.77 H 1889.33"
         fill-rule="evenodd"
         vector-effect="none"
         id="path16" />
    </g>
    <g
       fill="none"
       font-family="Arial"
       font-size="10.6667px"
       font-style="normal"
       font-weight="400"
       stroke="#000000"
       stroke-linecap="round"
       stroke-linejoin="round"
       stroke-opacity="1"
       stroke-width="4.53543"
       transform="translate(3807.27,-68.4096)"
       id="g17">
      <path
         d="m 1851.54,3535.78 v -302.36 h 1285.04 v 302.36 H 1851.54"
         fill-rule="evenodd"
         vector-effect="none"
         id="path17" />
    </g>
  </g>
  <g
     fill="none"
     fill-rule="evenodd"
     id="CollarTop"
     stroke="#000000"
     stroke-linecap="square"
     stroke-linejoin="bevel"
     stroke-width="1"
     transform="translate(-5033.2846,205.87483)">
    <g
       fill="none"
       font-family="Arial"
       font-size="10.6667px"
       font-style="normal"
       font-weight="400"
       stroke="#000000"
       stroke-linecap="round"
       stroke-linejoin="round"
       stroke-opacity="1"
       stroke-width="4.53543"
       transform="translate(4472.54,464.465)"
       id="g18">
      <path
         d="m 2709.21,139.639 -34.3,-0.007 -88.87,1.019 -79.01,1.943 -56.27,1.918 -58.36,2.525 -59.52,3.203 -59.75,3.949 -59.06,4.765 -57.43,5.65 -54.88,6.603 -38.79,5.654 -24.65,4.082 -23.5,4.36 -22.21,4.646 -20.83,4.94 -19.31,5.244 -17.69,5.556 -15.95,5.877 -7.21,3.075 V -49.9261 l 0.58,0.6233 2.04,1.2462 4.86,1.8671 10.06,2.4802 13.7,2.4645 17.09,2.4426 20.2,2.4144 35.22,3.5609 55.78,4.5862 63.33,4.3629 68.72,4.0903 71.93,3.7684 109.45,4.9968 137.13,5.01374 85.4,2.27745 45.69,0.80183 33.72,0.1349 15.65,-0.38967 5.86,-0.47895 1.18,-0.32024 V 139.639"
         fill-rule="evenodd"
         vector-effect="none"
         id="path18" />
    </g>
    <g
       fill="none"
       font-family="Arial"
       font-size="10.6667px"
       font-style="normal"
       font-weight="400"
       stroke="#000000"
       stroke-linecap="round"
       stroke-linejoin="round"
       stroke-opacity="1"
       stroke-width="4.53543"
       transform="translate(4472.54,464.465)"
       id="g19">
      <path
         d="m 2747.01,177.442 -71.89,-0.015 -88.4,1.014 -78.58,1.932 -55.92,1.906 -57.99,2.51 -59.09,3.179 -59.25,3.916 -58.45,4.716 -56.69,5.577 -54,6.498 -37.97,5.533 -23.93,3.963 -22.71,4.215 -21.3,4.454 -19.74,4.683 -18.01,4.891 -16.11,5.058 -14.19,5.229 -58.96,25.162 V -75.7124 l 48.02,-18.8105 9.16,12.4234 6.02,1.405 11.85,2.1308 15.99,2.285 19.42,2.322 34.53,3.4906 55.18,4.5367 62.9,4.3336 68.41,4.0718 71.67,3.7547 109.15,4.9832 136.78,5.0007 85.04,2.2679 45.26,0.7943 32.92,0.1317 14.03,-0.3494 1.34,-0.1102 45.51,-12.291 V 177.442"
         fill-rule="evenodd"
         vector-effect="none"
         id="path19" />
    </g>
  </g>
  <g
     fill="none"
     fill-rule="evenodd"
     id="CollarTopInterface"
     stroke="#000000"
     stroke-linecap="square"
     stroke-linejoin="bevel"
     stroke-width="1"
     transform="translate(-298.16351,1135.8611)">
    <g
       fill="none"
       font-family="Arial"
       font-size="10.6667px"
       font-style="normal"
       font-weight="400"
       stroke="#000000"
       stroke-linecap="round"
       stroke-linejoin="round"
       stroke-opacity="1"
       stroke-width="4.53543"
       transform="translate(4464.05,52.1687)"
       id="g20">
      <path
         d="M 1911.62,252.436 V -49.9261 l 0.58,0.6233 2.04,1.2462 4.86,1.8671 10.06,2.4802 13.7,2.4645 17.09,2.4426 20.2,2.4144 35.22,3.5609 55.78,4.5862 63.33,4.3629 68.72,4.0903 71.93,3.7684 109.45,4.9968 137.13,5.01374 85.4,2.27745 45.69,0.80183 33.72,0.1349 15.65,-0.38967 5.86,-0.47895 1.18,-0.32024 V 177.434 l -27.7,-0.04 -55.71,0.462 -55.86,1.104 -55.81,1.738 -55.52,2.363 -55.01,2.98 -54.3,3.589 -53.36,4.187 -52.19,4.779 -50.81,5.362 -49.21,5.935 -47.4,6.501 -45.35,7.058 -43.09,7.605 -40.61,8.146 -37.91,8.677 -17.75,4.556"
         fill-rule="evenodd"
         vector-effect="none"
         id="path20" />
    </g>
    <g
       fill="none"
       font-family="Arial"
       font-size="10.6667px"
       font-style="normal"
       font-weight="400"
       stroke="#000000"
       stroke-linecap="round"
       stroke-linejoin="round"
       stroke-opacity="1"
       stroke-width="4.53543"
       transform="translate(4464.05,52.1687)"
       id="g21">
      <path
         d=""
         fill-rule="evenodd"
         vector-effect="none"
         id="path21" />
    </g>
  </g>
  <g
     fill="none"
     fill-rule="evenodd"
     id="CuffInterface"
     stroke="#000000"
     stroke-linecap="square"
     stroke-linejoin="bevel"
     stroke-width="1"
     transform="translate(-106.48694,-1959.3604)">
    <g
       fill="none"
       font-family="Arial"
       font-size="10.6667px"
       font-style="normal"
       font-weight="400"
       stroke="#000000"
       stroke-linecap="round"
       stroke-linejoin="round"
       stroke-opacity="1"
       stroke-width="4.53543"
       transform="translate(4181.39,-488.694)"
       id="g22">
      <path
         d=""
         fill-rule="evenodd"
         vector-effect="none"
         id="path22" />
    </g>
    <g
       fill="none"
       font-family="Arial"
       font-size="10.6667px"
       font-style="normal"
       font-weight="400"
       stroke="#000000"
       stroke-linecap="round"
       stroke-linejoin="round"
       stroke-opacity="1"
       stroke-width="4.53543"
       transform="translate(4181.39,-488.694)"
       id="g23">
      <path
         d="m 1851.54,3535.78 v -302.36 h 1285.04 v 302.36 H 1851.54"
         fill-rule="evenodd"
         vector-effect="none"
         id="path23" />
    </g>
  </g>
  <g
     fill="none"
     fill-rule="evenodd"
     id="CollarBase"
     stroke="#000000"
     stroke-linecap="square"
     stroke-linejoin="bevel"
     stroke-width="1"
     transform="translate(-6041.3613,-596.32709)">
    <g
       fill="none"
       font-family="Arial"
       font-size="10.6667px"
       font-style="normal"
       font-weight="400"
       stroke="#000000"
       stroke-linecap="round"
       stroke-linejoin="round"
       stroke-opacity="1"
       stroke-width="4.53543"
       transform="translate(4487.28,922.271)"
       id="g24">
      <path
         d="m 2709.21,302.158 -23.26,-0.258 -46.64,0.297 -46.57,1.16 -46.28,1.897 -45.79,2.51 -45.07,2.996 -65.97,5.11 -123.48,11.152 -88.1,7.781 -31.64,2.366 -29,1.723 -26.14,0.953 -11.79,0.109 -8.74,-0.049 -20.03,-0.744 -34.33,-2.268 -51.06,-4.778 -51.83,-5.784 -69.23,-8.657 -31.38,-4.288 7.46,-75.11 12.03,-3.566 24.15,-6.831 24.95,-6.456 26.57,-6.068 29.01,-5.669 32.26,-5.255 36.32,-4.829 41.19,-4.391 46.89,-3.939 53.38,-3.475 60.7,-2.998 68.82,-2.508 77.76,-2.006 87.52,-1.489 98.08,-0.962 109.46,-0.42 59.78,0.02 v 124.724"
         fill-rule="evenodd"
         vector-effect="none"
         id="path24" />
    </g>
    <g
       fill="none"
       font-family="Arial"
       font-size="10.6667px"
       font-style="normal"
       font-weight="400"
       stroke="#000000"
       stroke-linecap="round"
       stroke-linejoin="round"
       stroke-opacity="1"
       stroke-width="4.53543"
       transform="translate(4487.28,922.271)"
       id="g25">
      <path
         d="m 2747.01,340.376 -61.15,-0.679 -45.96,0.292 -45.91,1.144 -45.72,1.874 -45.31,2.483 -44.65,2.968 -65.52,5.075 -123.28,11.135 -88.39,7.806 -32.18,2.407 -29.72,1.765 -27.08,0.988 -12.6,0.116 -9.6,-0.054 -21.18,-0.786 -35.38,-2.338 -51.92,-4.858 -52.41,-5.849 -69.69,-8.714 -38.43,-5.253 -21.75,-79.586 6.06,-61.056 36.62,-10.851 24.78,-7.01 25.89,-6.698 27.68,-6.322 30.18,-5.896 33.39,-5.44 37.35,-4.968 42.11,-4.487 47.66,-4.005 54.03,-3.517 61.23,-3.025 69.27,-2.524 78.13,-2.015 87.82,-1.495 98.33,-0.963 109.66,-0.421 97.64,0.033 v 200.724"
         fill-rule="evenodd"
         vector-effect="none"
         id="path25" />
    </g>
  </g>
  <g
     fill="none"
     fill-rule="evenodd"
     id="FrontPanel"
     stroke="#000000"
     stroke-linecap="square"
     stroke-linejoin="bevel"
     stroke-width="1"
     transform="translate(0,315.99983)">
    <g
       fill="none"
       font-family="Arial"
       font-size="10.6667px"
       font-style="normal"
       font-weight="400"
       stroke="#000000"
       stroke-linecap="round"
       stroke-linejoin="round"
       stroke-opacity="1"
       stroke-width="4.53543"
       transform="translate(2991.72,347.061)"
       id="g26">
      <path
         d="M -2951.32,3348.19 V 476.383 h 207.87 l 9.86,-0.51 18.99,-1.408 18.13,-1.873 17.29,-2.337 16.48,-2.8 15.66,-3.261 14.88,-3.72 14.12,-4.178 13.36,-4.635 12.63,-5.089 11.92,-5.543 11.22,-5.995 10.54,-6.446 9.88,-6.894 9.24,-7.342 8.61,-7.789 8,-8.232 7.41,-8.676 6.84,-9.118 6.28,-9.557 5.75,-9.996 5.23,-10.434 4.72,-10.868 4.25,-11.304 3.77,-11.735 3.33,-12.167 2.9,-12.597 2.49,-13.025 2.09,-13.451 1.71,-13.877 1.95,-21.557 0.79,-15.003 851.35,175.687 -6.45,49.379 -13.17,95.566 -12.79,91.42 -11.59,86.921 -7.34,61.868 -4.14,39.757 -3.4,38.435 -2.54,37.068 -1.59,35.658 -0.53,34.203 0.61,32.705 1.87,31.167 2.33,22.28 1.97,14.38 2.34,13.97 2.72,13.56 3.12,13.14 3.52,12.7 3.95,12.28 4.37,11.84 4.82,11.39 5.28,10.95 5.75,10.49 6.23,10.03 6.73,9.57 7.24,9.1 7.75,8.61 8.29,8.14 8.84,7.65 9.39,7.16 9.97,6.66 10.54,6.15 11.15,5.65 11.75,5.13 12.37,4.61 13.01,4.09 13.65,3.55 14.31,3.02 14.98,2.47 15.67,1.93 16.36,1.37 17.07,0.81 17.79,0.25 18.53,-0.32 9.57,-0.4 v 1428.66 l -16.66,453.37 -1.62,-0.02 -33.01,0.55 -29.15,1.62 -25.76,2.62 -22.82,3.54 -20.34,4.39 -18.32,5.17 -16.76,5.88 -15.65,6.52 -15.01,7.08 -22.24,11.46 -23.49,12.42 -17,8.61 -18.65,8.81 -20.76,8.93 -23.32,9 -26.34,8.97 -29.82,8.89 -33.75,8.73 -38.15,8.49 -43.01,8.19 -48.31,7.81 -54.09,7.36 -60.32,6.84 -67.01,6.25 -74.15,5.57 -81.75,4.84 -89.82,4.03 -98.33,3.14 -107.32,2.19 -116.75,1.15 -62.49,0.12 h -207.87"
         fill-rule="evenodd"
         vector-effect="none"
         id="path26" />
    </g>
    <g
       fill="none"
       font-family="Arial"
       font-size="10.6667px"
       font-style="normal"
       font-weight="400"
       stroke="#000000"
       stroke-linecap="round"
       stroke-linejoin="round"
       stroke-opacity="1"
       stroke-width="4.53543"
       transform="translate(2991.72,347.061)"
       id="g27">
      <path
         d="M -2989.11,3385.99 V 438.588 h 244.69 l 8.46,-0.438 18.02,-1.336 17,-1.756 16.06,-2.172 15.16,-2.575 14.25,-2.966 13.36,-3.342 12.51,-3.701 11.66,-4.045 10.85,-4.372 10.07,-4.684 9.33,-4.985 8.63,-5.276 7.97,-5.565 7.37,-5.86 6.82,-6.165 6.31,-6.491 5.84,-6.842 5.42,-7.222 5.02,-7.634 4.64,-8.077 4.29,-8.548 3.93,-9.041 3.58,-9.554 3.25,-10.08 2.9,-10.614 2.57,-11.151 2.23,-11.689 1.9,-12.225 1.56,-12.671 1.83,-20.239 3.08,-58.207 928.8,191.669 -11.02,84.327 -13.2,95.735 -12.77,91.336 -11.54,86.532 -7.28,61.329 -4.08,39.192 -3.33,37.768 -2.49,36.248 -1.54,34.662 -0.52,33.006 0.59,31.276 1.77,29.555 2.18,20.85 1.81,13.23 2.15,12.81 2.47,12.32 2.8,11.8 3.13,11.29 3.46,10.77 3.79,10.25 4.12,9.74 4.45,9.23 4.78,8.72 5.12,8.24 5.46,7.77 5.83,7.33 6.21,6.89 6.61,6.49 7.05,6.11 7.52,5.73 8.03,5.37 8.58,5.01 9.18,4.64 9.81,4.29 10.47,3.9 11.17,3.51 11.88,3.09 12.63,2.66 13.39,2.21 14.17,1.74 14.95,1.26 15.76,0.75 16.56,0.23 17.48,-0.3 48.48,-2.02 v 1468.76 l -18.05,490.86 -37.92,-0.41 -31.75,0.53 -27.56,1.53 -23.91,2.43 -20.74,3.21 -18.1,3.91 -16.05,4.54 -14.63,5.13 -13.85,5.77 -13.61,6.42 -21.47,11.07 -23.62,12.48 -17.77,9 -19.71,9.3 -22.02,9.49 -24.7,9.52 -27.74,9.45 -31.18,9.3 -35.05,9.06 -39.35,8.76 -44.1,8.4 -49.3,7.97 -54.98,7.48 -61.11,6.93 -67.71,6.31 -74.79,5.63 -82.33,4.87 -90.33,4.05 -98.8,3.15 -107.73,2.2 -117.1,1.16 -62.67,0.12 h -245.7"
         fill-rule="evenodd"
         vector-effect="none"
         id="path27" />
    </g>
    <g
       fill="#000000"
       fill-opacity="1"
       font-family="'Noto Sans'"
       font-size="111px"
       font-style="normal"
       font-weight="400"
       stroke="#000000"
       stroke-linecap="square"
       stroke-linejoin="bevel"
       stroke-opacity="1"
       stroke-width="1"
       transform="translate(376.261,1315.96)"
       id="g28">
      <path
         d="M 20.75,118.656 H 10.7656 V 39.4063 h 44.2813 v 8.7656 H 20.75 V 76.25 h 32.1875 v 8.7813 H 20.75 V 118.656 M 94.7813,58.0469 c 1.1041,0 2.3046,0.0573 3.6015,0.1719 1.2969,0.1145 2.4242,0.2812 3.3832,0.5 l -1.219,8.9843 c -0.9585,-0.2187 -2.0105,-0.401 -3.1564,-0.5468 -1.1458,-0.1459 -2.2396,-0.2188 -3.2812,-0.2188 -2.2917,0 -4.474,0.4792 -6.5469,1.4375 -2.0729,0.9583 -3.9245,2.3073 -5.5547,4.0469 -1.6302,1.7396 -2.9062,3.8307 -3.8281,6.2734 -0.9219,2.4427 -1.3828,5.1797 -1.3828,8.211 V 118.656 H 67.0313 V 59.1719 h 7.9843 l 1.1094,10.875 h 0.4531 c 1.25,-2.2188 2.763,-4.237 4.5391,-6.0547 1.776,-1.8177 3.8125,-3.263 6.1094,-4.3359 2.2968,-1.073 4.8151,-1.6094 7.5547,-1.6094 m 67.5777,30.75 c 0,4.9583 -0.648,9.3437 -1.945,13.1561 -1.297,3.813 -3.146,7.05 -5.547,9.711 -2.401,2.662 -5.323,4.677 -8.765,6.047 -3.443,1.37 -7.274,2.055 -11.493,2.055 -3.916,0 -7.541,-0.685 -10.875,-2.055 -3.333,-1.37 -6.218,-3.385 -8.656,-6.047 -2.437,-2.661 -4.341,-5.898 -5.711,-9.711 -1.37,-3.8124 -2.054,-8.1978 -2.054,-13.1561 0,-6.5834 1.109,-12.1511 3.328,-16.7031 2.218,-4.5521 5.398,-8.0313 9.539,-10.4375 4.14,-2.4063 9.06,-3.6094 14.758,-3.6094 5.406,0 10.164,1.2031 14.273,3.6094 4.109,2.4062 7.328,5.8854 9.656,10.4375 2.328,4.552 3.492,10.1197 3.492,16.7031 m -44.953,0 c 0,4.6666 0.612,8.7187 1.836,12.1561 1.224,3.438 3.13,6.081 5.719,7.93 2.588,1.849 5.878,2.773 9.867,2.773 4,0 7.294,-0.924 9.883,-2.773 2.588,-1.849 4.495,-4.492 5.719,-7.93 1.224,-3.4374 1.836,-7.4895 1.836,-12.1561 0,-4.7292 -0.631,-8.7604 -1.891,-12.0938 -1.26,-3.3333 -3.167,-5.9062 -5.719,-7.7187 -2.552,-1.8125 -5.864,-2.7188 -9.937,-2.7188 -6.063,0 -10.464,1.9974 -13.203,5.9922 -2.74,3.9948 -4.11,9.5078 -4.11,16.5391 m 89.016,-30.75 c 7.094,0 12.456,1.7213 16.086,5.164 3.63,3.4427 5.445,9.0131 5.445,16.711 v 38.7341 h -9.656 V 80.5781 c 0,-4.8021 -1.073,-8.388 -3.219,-10.7578 -2.146,-2.3698 -5.515,-3.5547 -10.109,-3.5547 -6.584,0 -11.133,1.849 -13.649,5.5469 -2.515,3.6979 -3.773,9.026 -3.773,15.9844 v 30.8591 h -9.766 V 59.1719 h 7.875 l 1.438,8.0937 h 0.562 c 1.334,-2.0729 2.979,-3.7942 4.938,-5.164 1.958,-1.3698 4.122,-2.3881 6.492,-3.0547 2.37,-0.6667 4.815,-1 7.336,-1 m 59.812,53.7341 c 1.48,0 2.998,-0.13 4.555,-0.39 1.557,-0.261 2.815,-0.542 3.774,-0.844 v 7.437 c -1.032,0.521 -2.511,0.948 -4.438,1.282 -1.927,0.333 -3.776,0.5 -5.547,0.5 -3.114,0 -5.984,-0.537 -8.609,-1.61 -2.625,-1.073 -4.75,-2.94 -6.375,-5.601 -1.625,-2.662 -2.438,-6.399 -2.438,-11.211 V 66.7188 h -8.437 v -4.6719 l 8.547,-3.875 3.875,-12.6563 h 5.781 v 13.6563 h 17.203 v 7.5469 h -17.203 v 34.4062 c 0,3.625 0.867,6.307 2.601,8.047 1.735,1.739 3.972,2.609 6.711,2.609 M 308.75,39.4063 c 10.354,0 17.898,2.0338 22.633,6.1015 4.734,4.0677 7.101,9.8047 7.101,17.211 0,3.25 -0.536,6.375 -1.609,9.375 -1.073,3 -2.828,5.6822 -5.266,8.0468 -2.437,2.3646 -5.692,4.2318 -9.765,5.6016 -4.073,1.3698 -9.068,2.0547 -14.985,2.0547 h -9.109 v 30.8591 h -9.984 V 39.4063 h 20.984 m -0.891,8.5468 H 297.75 V 79.25 h 8 c 5.031,0 9.211,-0.5365 12.539,-1.6094 3.328,-1.0729 5.807,-2.7916 7.438,-5.1562 1.63,-2.3646 2.445,-5.474 2.445,-9.3281 0,-5.1042 -1.628,-8.9141 -4.883,-11.4297 -3.255,-2.5157 -8.398,-3.7735 -15.43,-3.7735 m 68.25,10.2188 c 7.25,0 12.615,1.5885 16.094,4.7656 3.479,3.1771 5.219,8.2448 5.219,15.2031 v 40.5154 h -7.109 l -1.891,-8.437 h -0.438 c -1.698,2.146 -3.455,3.94 -5.273,5.383 -1.818,1.442 -3.891,2.497 -6.219,3.164 -2.328,0.666 -5.159,1 -8.492,1 -3.552,0 -6.753,-0.628 -9.602,-1.883 -2.849,-1.255 -5.085,-3.198 -6.71,-5.828 -1.625,-2.631 -2.438,-5.94 -2.438,-9.93 0,-5.9271 2.331,-10.5 6.992,-13.7187 4.662,-3.2188 11.836,-4.974 21.524,-5.2657 l 10.109,-0.3281 V 79.25 c 0,-4.9583 -1.073,-8.3984 -3.219,-10.3203 -2.146,-1.9219 -5.182,-2.8828 -9.109,-2.8828 -3.104,0 -6.063,0.4635 -8.875,1.3906 -2.813,0.9271 -5.438,1.9792 -7.875,3.1563 l -3,-7.3282 c 2.583,-1.4062 5.651,-2.6067 9.203,-3.6015 3.552,-0.9948 7.255,-1.4922 11.109,-1.4922 M 379,89.9063 c -7.406,0.302 -12.534,1.4869 -15.383,3.5546 -2.849,2.0677 -4.273,4.9922 -4.273,8.7731 0,3.323 1.018,5.763 3.054,7.321 2.037,1.557 4.644,2.336 7.821,2.336 5.031,0 9.213,-1.388 12.547,-4.164 3.333,-2.776 5,-7.05 5,-12.8207 V 89.5781 L 379,89.9063 m 65.484,-31.8594 c 7.094,0 12.456,1.7213 16.086,5.164 3.631,3.4427 5.446,9.0131 5.446,16.711 v 38.7341 h -9.657 V 80.5781 c 0,-4.8021 -1.073,-8.388 -3.218,-10.7578 -2.146,-2.3698 -5.516,-3.5547 -10.11,-3.5547 -6.583,0 -11.133,1.849 -13.648,5.5469 -2.516,3.6979 -3.774,9.026 -3.774,15.9844 v 30.8591 h -9.765 V 59.1719 h 7.875 l 1.437,8.0937 h 0.563 c 1.333,-2.0729 2.979,-3.7942 4.937,-5.164 1.959,-1.3698 4.123,-2.3881 6.492,-3.0547 2.37,-0.6667 4.816,-1 7.336,-1 m 62.922,0 c 5.104,0 9.49,1.112 13.157,3.3359 3.666,2.224 6.479,5.3516 8.437,9.3828 1.958,4.0313 2.938,8.75 2.938,14.1563 v 5.875 h -40.735 c 0.146,6.7291 1.867,11.8511 5.164,15.3671 3.297,3.516 7.904,5.274 13.821,5.274 3.77,0 7.117,-0.352 10.039,-1.055 2.921,-0.703 5.94,-1.722 9.054,-3.055 v 8.547 c -3.041,1.333 -6.041,2.315 -9,2.945 -2.958,0.631 -6.474,0.946 -10.547,0.946 -5.614,0 -10.588,-1.146 -14.921,-3.438 -4.334,-2.292 -7.701,-5.713 -10.102,-10.265 -2.401,-4.553 -3.602,-10.1203 -3.602,-16.7036 0,-6.5104 1.092,-12.0964 3.274,-16.7578 2.182,-4.6615 5.252,-8.2526 9.211,-10.7735 3.958,-2.5208 8.562,-3.7812 13.812,-3.7812 m -0.109,8 c -4.656,0 -8.336,1.4974 -11.039,4.4922 -2.703,2.9948 -4.315,7.1588 -4.836,12.4922 h 30.312 c 0,-3.4063 -0.518,-6.3672 -1.554,-8.8829 -1.037,-2.5156 -2.61,-4.4948 -4.719,-5.9375 -2.109,-1.4427 -4.831,-2.164 -8.164,-2.164 m 49.5,52.6091 h -9.766 V 34.2969 h 9.766 v 84.3591"
         fill-rule="nonzero"
         vector-effect="none"
         id="path28" />
    </g>
  </g>
</svg>
